<svg width="17" height="17" viewBox="0 0 17 17" fill="none" xmlns="http://www.w3.org/2000/svg">
<g id="AlertInfo">
<path id="Vector" d="M8.1118 4.98153H9.437V6.30672H8.1118V4.98153ZM8.1118 7.63192H9.437V11.6075H8.1118V7.63192ZM8.7744 1.66855C5.11687 1.66855 2.14844 4.63698 2.14844 8.29451C2.14844 11.952 5.11687 14.9205 8.7744 14.9205C12.4319 14.9205 15.4004 11.952 15.4004 8.29451C15.4004 4.63698 12.4319 1.66855 8.7744 1.66855ZM8.7744 13.5953C5.85235 13.5953 3.47363 11.2166 3.47363 8.29451C3.47363 5.37246 5.85235 2.99374 8.7744 2.99374C11.6965 2.99374 14.0752 5.37246 14.0752 8.29451C14.0752 11.2166 11.6965 13.5953 8.7744 13.5953Z" fill="#4F6CC4"/>
</g>
</svg>
