<svg width="54" height="24" viewBox="0 0 54 24" fill="none" xmlns="http://www.w3.org/2000/svg">
<g id="Group 382">
<path id="$" d="M14.5963 15.4496C14.5963 11.8954 11.5781 10.8501 8.84851 10.1445V6.4858C10.0296 6.77326 11.1844 7.32207 12.103 8.18448L14.1764 5.46659C12.7591 4.18605 10.9744 3.34977 8.84851 3.1407V0.65802H6.35515V3.08844C2.83821 3.42817 0.712295 5.67566 0.712295 8.34128C0.712295 11.8693 3.65183 12.9146 6.35515 13.568V17.6709C4.59668 17.3573 3.1794 16.4688 2.18206 15.4496L0.161133 18.272C1.60465 19.7094 3.59934 20.7547 6.35515 20.9899V23.3419H8.84851V20.9638C12.7066 20.5718 14.5963 18.3243 14.5963 15.4496ZM4.54419 8.02767C4.54419 7.08687 5.25282 6.4074 6.59136 6.27673V9.59569C5.38405 9.28208 4.54419 8.83781 4.54419 8.02767ZM8.61229 14.0907C9.87209 14.4565 10.7907 14.9008 10.7907 15.8677C10.7907 16.7301 10.1083 17.5403 8.61229 17.7493V14.0907Z" fill="#4F6CC4"/>
<path id="$_2" d="M34.1877 15.4496C34.1877 11.8954 31.1694 10.8501 28.4398 10.1445V6.4858C29.6209 6.77326 30.7757 7.32207 31.6943 8.18448L33.7677 5.46659C32.3504 4.18605 30.5657 3.34977 28.4398 3.1407V0.65802H25.9465V3.08844C22.4295 3.42817 20.3036 5.67566 20.3036 8.34128C20.3036 11.8693 23.2431 12.9146 25.9465 13.568V17.6709C24.188 17.3573 22.7707 16.4688 21.7734 15.4496L19.7524 18.272C21.196 19.7094 23.1906 20.7547 25.9465 20.9899V23.3419H28.4398V20.9638C32.298 20.5718 34.1877 18.3243 34.1877 15.4496ZM24.1355 8.02767C24.1355 7.08687 24.8441 6.4074 26.1827 6.27673V9.59569C24.9754 9.28208 24.1355 8.83781 24.1355 8.02767ZM28.2036 14.0907C29.4634 14.4565 30.382 14.9008 30.382 15.8677C30.382 16.7301 29.6996 17.5403 28.2036 17.7493V14.0907Z" fill="#4F6CC4"/>
<path id="$_3" d="M53.7775 15.4496C53.7775 11.8954 50.7592 10.8501 48.0297 10.1445V6.4858C49.2107 6.77326 50.3655 7.32207 51.2841 8.18448L53.3576 5.46659C51.9403 4.18605 50.1556 3.34977 48.0297 3.1407V0.65802H45.5363V3.08844C42.0194 3.42817 39.8934 5.67566 39.8934 8.34128C39.8934 11.8693 42.833 12.9146 45.5363 13.568V17.6709C43.7778 17.3573 42.3606 16.4688 41.3632 15.4496L39.3423 18.272C40.7858 19.7094 42.7805 20.7547 45.5363 20.9899V23.3419H48.0297V20.9638C51.8878 20.5718 53.7775 18.3243 53.7775 15.4496ZM43.7253 8.02767C43.7253 7.08687 44.434 6.4074 45.7725 6.27673V9.59569C44.5652 9.28208 43.7253 8.83781 43.7253 8.02767ZM47.7934 14.0907C49.0532 14.4565 49.9718 14.9008 49.9718 15.8677C49.9718 16.7301 49.2895 17.5403 47.7934 17.7493V14.0907Z" fill="#D1DDFF"/>
</g>
</svg>
