<svg width="50" height="45" viewBox="0 0 50 45" fill="none" xmlns="http://www.w3.org/2000/svg">
<g id="Group 296">
<path id="Vector" d="M45.7337 4.5274C40.5025 -0.755999 32.0186 -0.755999 26.7874 4.5274L24.9287 6.40459L23.07 4.5274C17.8388 -0.755999 9.35487 -0.755999 4.12363 4.5274C-1.10762 9.81079 -1.10762 18.3793 4.12363 23.6627L24.9287 44.6751L35.9458 33.5482L45.7337 23.6627C50.965 18.3793 50.965 9.81079 45.7337 4.5274Z" fill="#4F6CC4"/>
<g id="5.5">
<path d="M20.8749 13.4776H15.4495L15.3916 15.5822C15.6876 15.4792 16.0931 15.4277 16.6079 15.4277C17.303 15.4277 17.9402 15.5307 18.5194 15.7366C19.0986 15.9426 19.5942 16.2451 20.0061 16.6441C20.4308 17.0302 20.7591 17.5065 20.9907 18.0728C21.2224 18.6263 21.3383 19.2506 21.3383 19.9457C21.3383 20.718 21.2031 21.4066 20.9328 22.0116C20.6754 22.6165 20.315 23.1314 19.8516 23.5562C19.3882 23.9681 18.8347 24.2834 18.1911 24.5022C17.5604 24.7211 16.8718 24.8305 16.1252 24.8305C14.941 24.8305 13.9499 24.5409 13.1519 23.9616C12.3538 23.3824 11.8068 22.5071 11.5107 21.3358L14.542 20.6407C14.6193 21.1299 14.8252 21.5289 15.1599 21.8378C15.4945 22.1339 15.9129 22.2819 16.4149 22.2819C17.0327 22.2819 17.5218 22.0888 17.8822 21.7027C18.2555 21.3165 18.4421 20.8274 18.4421 20.2353C18.4421 19.7848 18.3456 19.4179 18.1525 19.1347C17.9723 18.8387 17.7278 18.607 17.4188 18.4397C17.1228 18.2595 16.7881 18.1372 16.4149 18.0728C16.0416 18.0085 15.6683 17.9763 15.295 17.9763C14.8188 17.9763 14.3361 18.0213 13.847 18.1114C13.3707 18.2016 12.9073 18.3238 12.4568 18.4783L12.6113 10.929H20.8749V13.4776Z" fill="#F8F8F8"/>
<path d="M23.4003 22.9383C23.4003 22.6938 23.4453 22.4621 23.5354 22.2433C23.6255 22.0244 23.7478 21.8378 23.9023 21.6833C24.0696 21.516 24.2627 21.3873 24.4815 21.2972C24.7003 21.2071 24.932 21.162 25.1766 21.162C25.4211 21.162 25.6528 21.2071 25.8716 21.2972C26.0904 21.3873 26.2771 21.516 26.4315 21.6833C26.5989 21.8378 26.7276 22.0244 26.8177 22.2433C26.9078 22.4621 26.9528 22.6938 26.9528 22.9383C26.9528 23.1829 26.9078 23.4146 26.8177 23.6334C26.7276 23.8522 26.5989 24.0453 26.4315 24.2126C26.2771 24.3671 26.0904 24.4894 25.8716 24.5795C25.6528 24.6696 25.4211 24.7146 25.1766 24.7146C24.932 24.7146 24.7003 24.6696 24.4815 24.5795C24.2627 24.4894 24.0696 24.3671 23.9023 24.2126C23.7478 24.0453 23.6255 23.8522 23.5354 23.6334C23.4453 23.4146 23.4003 23.1829 23.4003 22.9383Z" fill="#F8F8F8"/>
<path d="M38.0141 13.4776H32.5887L32.5308 15.5822C32.8268 15.4792 33.2323 15.4277 33.7471 15.4277C34.4422 15.4277 35.0794 15.5307 35.6586 15.7366C36.2378 15.9426 36.7334 16.2451 37.1453 16.6441C37.57 17.0302 37.8983 17.5065 38.1299 18.0728C38.3616 18.6263 38.4775 19.2506 38.4775 19.9457C38.4775 20.718 38.3423 21.4066 38.072 22.0116C37.8146 22.6165 37.4542 23.1314 36.9908 23.5562C36.5274 23.9681 35.9739 24.2834 35.3304 24.5022C34.6996 24.7211 34.011 24.8305 33.2645 24.8305C32.0803 24.8305 31.0891 24.5409 30.2911 23.9616C29.493 23.3824 28.946 22.5071 28.6499 21.3358L31.6812 20.6407C31.7585 21.1299 31.9644 21.5289 32.2991 21.8378C32.6337 22.1339 33.0521 22.2819 33.5541 22.2819C34.1719 22.2819 34.661 22.0888 35.0214 21.7027C35.3947 21.3165 35.5814 20.8274 35.5814 20.2353C35.5814 19.7848 35.4848 19.4179 35.2917 19.1347C35.1115 18.8387 34.867 18.607 34.5581 18.4397C34.262 18.2595 33.9273 18.1372 33.5541 18.0728C33.1808 18.0085 32.8075 17.9763 32.4342 17.9763C31.958 17.9763 31.4753 18.0213 30.9862 18.1114C30.5099 18.2016 30.0465 18.3238 29.596 18.4783L29.7505 10.929H38.0141V13.4776Z" fill="#F8F8F8"/>
</g>
</g>
</svg>
