<svg width="53" height="47" viewBox="0 0 53 47" fill="none" xmlns="http://www.w3.org/2000/svg">
<g id="Group 296">
<path id="Vector" d="M47.974 4.7444C42.5083 -0.775762 33.6442 -0.775762 28.1785 4.7444L26.2366 6.70572L24.2946 4.7444C18.8289 -0.775762 9.96483 -0.775762 4.49916 4.7444C-0.966516 10.2646 -0.966516 19.217 4.49916 24.7372L26.2366 46.6913L37.7474 35.0657L47.974 24.7372C53.4396 19.217 53.4396 10.2646 47.974 4.7444Z" fill="#4F6CC4"/>
<g id="9.5">
<path d="M17.7256 20.6116C17.5642 20.652 17.4028 20.6856 17.2415 20.7125C17.0801 20.7394 16.912 20.7528 16.7371 20.7528C16.0647 20.7528 15.4528 20.6318 14.9014 20.3897C14.35 20.1477 13.8793 19.8182 13.4893 19.4013C13.0993 18.9844 12.7967 18.4935 12.5816 17.9287C12.3664 17.3504 12.2588 16.7385 12.2588 16.0929C12.2588 15.3533 12.3933 14.6876 12.6622 14.0958C12.9447 13.4906 13.3212 12.9729 13.7919 12.5425C14.2761 12.1122 14.8409 11.7827 15.4864 11.5541C16.132 11.312 16.8313 11.1909 17.5844 11.1909C18.3241 11.1909 19.0167 11.312 19.6622 11.5541C20.3212 11.7827 20.886 12.1122 21.3567 12.5425C21.8409 12.9729 22.2174 13.4906 22.4864 14.0958C22.7688 14.6876 22.91 15.3533 22.91 16.0929C22.91 16.604 22.8629 17.0747 22.7688 17.505C22.6747 17.9219 22.5469 18.3187 22.3855 18.6952C22.2376 19.0718 22.056 19.4349 21.8409 19.7845C21.6391 20.1208 21.424 20.4704 21.1953 20.8335L18.0685 25.7153H14.3769L17.7256 20.6116ZM15.2847 16.214C15.2847 16.8595 15.4932 17.3974 15.9101 17.8278C16.3404 18.2447 16.8985 18.4531 17.5844 18.4531C18.2703 18.4531 18.8217 18.2447 19.2386 17.8278C19.6689 17.3974 19.8841 16.8595 19.8841 16.214C19.8841 15.5684 19.6689 15.0372 19.2386 14.6203C18.8217 14.19 18.2703 13.9748 17.5844 13.9748C16.8985 13.9748 16.3404 14.19 15.9101 14.6203C15.4932 15.0372 15.2847 15.5684 15.2847 16.214Z" fill="#F8F8F8"/>
<path d="M24.6408 23.9805C24.6408 23.725 24.6878 23.4829 24.782 23.2543C24.8761 23.0256 25.0039 22.8306 25.1653 22.6693C25.3401 22.4944 25.5418 22.3599 25.7704 22.2658C25.9991 22.1717 26.2411 22.1246 26.4967 22.1246C26.7522 22.1246 26.9943 22.1717 27.2229 22.2658C27.4515 22.3599 27.6465 22.4944 27.8079 22.6693C27.9827 22.8306 28.1172 23.0256 28.2114 23.2543C28.3055 23.4829 28.3526 23.725 28.3526 23.9805C28.3526 24.236 28.3055 24.4781 28.2114 24.7067C28.1172 24.9353 27.9827 25.1371 27.8079 25.3119C27.6465 25.4733 27.4515 25.601 27.2229 25.6952C26.9943 25.7893 26.7522 25.8364 26.4967 25.8364C26.2411 25.8364 25.9991 25.7893 25.7704 25.6952C25.5418 25.601 25.3401 25.4733 25.1653 25.3119C25.0039 25.1371 24.8761 24.9353 24.782 24.7067C24.6878 24.4781 24.6408 24.236 24.6408 23.9805Z" fill="#F8F8F8"/>
<path d="M39.9095 14.0958H34.241L34.1804 16.2947C34.4898 16.1871 34.9134 16.1333 35.4513 16.1333C36.1775 16.1333 36.8432 16.2409 37.4484 16.456C38.0536 16.6712 38.5714 16.9873 39.0017 17.4042C39.4455 17.8076 39.7885 18.3052 40.0305 18.8969C40.2726 19.4752 40.3937 20.1275 40.3937 20.8537C40.3937 21.6606 40.2524 22.3801 39.97 23.0122C39.7011 23.6443 39.3245 24.1822 38.8404 24.626C38.3562 25.0564 37.7779 25.3859 37.1055 25.6145C36.4465 25.8431 35.727 25.9574 34.947 25.9574C33.7097 25.9574 32.6742 25.6548 31.8404 25.0496C31.0066 24.4445 30.435 23.53 30.1257 22.3061L33.2928 21.5799C33.3735 22.091 33.5887 22.5079 33.9384 22.8306C34.288 23.14 34.7251 23.2946 35.2496 23.2946C35.8951 23.2946 36.4062 23.0929 36.7827 22.6894C37.1727 22.286 37.3677 21.7749 37.3677 21.1563C37.3677 20.6856 37.2669 20.3023 37.0651 20.0064C36.8769 19.6971 36.6213 19.4551 36.2986 19.2802C35.9893 19.092 35.6396 18.9642 35.2496 18.8969C34.8596 18.8297 34.4696 18.7961 34.0796 18.7961C33.582 18.7961 33.0777 18.8432 32.5666 18.9373C32.069 19.0314 31.5849 19.1592 31.1142 19.3206L31.2756 11.433H39.9095V14.0958Z" fill="#F8F8F8"/>
</g>
</g>
</svg>
