<?xml version="1.0" encoding="UTF-8"?>
<svg id="Layer_2" data-name="Layer 2" xmlns="http://www.w3.org/2000/svg" viewBox="0 0 512 459.55">
  <defs>
    <style>
      .cls-1 {
        fill: #003073;
      }

      .cls-2 {
        fill: #fff;
      }

      .cls-3 {
        fill: #3eccab;
      }
    </style>
  </defs>
  <g id="Layer_1-2" data-name="Layer 1-2">
    <path class="cls-2" d="m256,459.55c-8.43,0-16.86-3.22-23.3-9.64L45.06,262.42C16.01,233.39,0,194.78,0,153.72S16.01,74.05,45.06,45.01C74.11,15.99,112.73,0,153.82,0c38.06,0,74,13.71,102.18,38.81C284.18,13.72,320.13,0,358.18,0c41.08,0,79.71,15.99,108.76,45.01,29.06,29.03,45.06,67.64,45.06,108.71s-16.01,79.67-45.06,108.71l-187.64,187.48c-6.43,6.43-14.87,9.64-23.3,9.64Z"/>
    <g id="Artwork_31" data-name="Artwork 31">
      <path class="cls-3" d="m250.16,261.8c5.81-5.22,6.12-14.29.53-19.88-5.24-5.25-13.9-4.94-19.42.01l-17.77,15.97c-2,1.79-5.16.82-5.8-1.79l-.02-.08c-.32-1.28.07-2.63,1.04-3.51l63.96-57.45c-.33,3.42.75,6.97,3.41,9.62,4.59,4.59,12.17,4.32,17-.01l54.32-48.79c1.38-1.25,3.56-1.02,4.62.52.01.02.03.03.03.05.9,1.3.73,3.06-.45,4.12l-61.74,55.46c-5.09,4.57-5.35,12.5-.46,17.4,4.59,4.59,12.17,4.32,17-.01l61.24-55.01c1.18-1.05,2.95-1.05,4.14-.01.01.01.03.03.05.04,1.41,1.22,1.41,3.4.02,4.65l-53.17,47.76c-5.09,4.57-5.35,12.5-.46,17.4,4.59,4.59,12.17,4.32,17-.01l59.44-53.39c.86-.77,2.07-.98,3.15-.58.02,0,.05.02.07.03,2.21.8,2.76,3.65,1.01,5.21l-15.56,13.98c-4.83,4.34-5.91,11.85-1.83,16.9,4.35,5.39,12.27,5.97,17.36,1.4l53.27-47.85c12.45-11.19,20.06-26.41,22.41-42.48,3.94,34.73-7.38,70.87-34.02,97.5l-184.51,184.51-91.88-91.88c9.13-3.4,17.7-8.42,25.16-15.13l60.86-54.67h0Z"/>
      <path class="cls-1" d="m355.14,75.98l-74.41,66.84c-5.09,4.57-5.35,12.5-.46,17.4,4.59,4.59,12.17,4.32,17-.01l36.7-32.96c1.75-1.57,4.52-.72,5.08,1.56l.02.07c.28,1.12-.05,2.3-.92,3.07l-56.83,51.04c.67-3.74-.07-7.67-2.6-10.8-4.97-6.16-14.02-6.82-19.83-1.6l-60.75,54.57c-1.58,1.42-4.07,1.16-5.28-.59-.01-.02-.03-.04-.04-.06-1.03-1.49-.82-3.5.52-4.71l69.97-62.84c5.52-4.96,6.76-13.53,2.09-19.31-4.97-6.16-14.02-6.82-19.83-1.6l-70.54,63.36c-1.34,1.21-3.37,1.19-4.73.01l-.05-.05c-1.62-1.39-1.61-3.89-.03-5.31l62.06-55.74c5.52-4.96,6.76-13.53,2.09-19.31-4.97-6.16-14.02-6.82-19.83-1.6l-70.38,63.21c-.98.88-2.37,1.11-3.6.67l-.08-.03c-2.52-.92-3.15-4.17-1.15-5.96l41.93-37.66c5.52-4.96,6.76-13.53,2.09-19.31-4.97-6.16-14.02-6.82-19.83-1.6l-85.01,76.36c-9.22,8.27-16.1,18.48-20.54,29.63-32.3-46.34-27.81-110.53,13.53-151.87h0c46.41-46.41,121.66-46.41,168.07,0l16.44,16.44,16.44-16.44c44.5-44.5,115.5-46.3,162.18-5.46-25.89-12.41-57.91-8.81-79.48,10.56v.02Z"/>
    </g>
  </g>
</svg>