<?xml version="1.0" encoding="UTF-8"?>
<svg id="Capa_1" data-name="Capa 1" xmlns="http://www.w3.org/2000/svg" viewBox="0 0 221 37">
  <defs>
    <style>
      .cls-1 {
        fill: #fbfbfb;
      }

      .cls-2 {
        fill: #21bfac;
      }

      .cls-3 {
        fill: #3eccab;
      }
    </style>
  </defs>
  <path class="cls-1" d="m60.56,9.43v3.91h-9.43v4.31h8.87l.1,3.91h-8.87v6.54c0,.71-.58,1.29-1.3,1.29h-3.19l-.1-19.96h13.92Z"/>
  <path class="cls-1" d="m73.37,29.39h-2.76v-1.86c-1.11,1.39-2.49,2.09-4.13,2.09s-3.02-.47-4.13-1.41c-1.11-.94-1.67-2.2-1.67-3.77s.58-2.75,1.73-3.53c1.15-.78,2.72-1.17,4.72-1.17h3.22v-.08c0-1.64-.87-2.46-2.62-2.46-.75,0-1.54.15-2.37.44-.83.29-1.54.66-2.11,1.1l-1.93-2.77c2.04-1.46,4.36-2.2,6.97-2.2,1.88,0,3.42.47,4.61,1.4,1.19.93,1.79,2.41,1.79,4.43v8.51c0,.71-.58,1.29-1.3,1.29h0Zm-3.05-5.85v-.74h-2.71c-1.73,0-2.59.53-2.59,1.6,0,.55.21.98.62,1.27.41.29,1,.44,1.77.44s1.44-.23,2.03-.7c.58-.47.88-1.09.88-1.87h0Z"/>
  <path class="cls-1" d="m90.72,21.11v7c0,.71-.58,1.29-1.3,1.29h-3.05v-8.4c0-1.22-.19-2.11-.56-2.68-.37-.57-.98-.86-1.81-.86s-1.57.31-2.22.93c-.64.62-.96,1.53-.96,2.73v7c0,.71-.58,1.29-1.3,1.29h-3.02v-15.36h4.32v1.74c1.19-1.33,2.55-2,4.09-2,.98,0,1.86.29,2.66.86.8.57,1.4,1.27,1.8,2.09.59-.93,1.4-1.66,2.41-2.17,1.01-.51,2.02-.77,3.04-.77,1.82,0,3.29.54,4.4,1.61,1.11,1.08,1.67,2.63,1.67,4.67v9.34h-4.35v-8.4c0-2.36-.87-3.54-2.62-3.54-.86,0-1.61.31-2.24.93-.63.62-.95,1.53-.95,2.73h0Z"/>
  <path class="cls-1" d="m103.72,13.42c-.49-.49-.73-1.08-.73-1.78s.24-1.3.73-1.78c.49-.49,1.09-.73,1.8-.73s1.31.24,1.8.73.73,1.08.73,1.78-.24,1.3-.73,1.78-1.09.73-1.8.73-1.31-.24-1.8-.73Zm2.66,15.97h-3.02v-14.02h4.32v12.73c0,.71-.58,1.29-1.3,1.29h0Z"/>
  <path class="cls-1" d="m113.47,29.39h-3.02V9.55h4.32v18.56c0,.71-.58,1.29-1.3,1.29h0Z"/>
  <path class="cls-1" d="m121.29,35.45c-1.52,0-2.95-.61-4.29-1.83l1.96-3.17c.73.71,1.48,1.06,2.24,1.06.41,0,.75-.19,1.04-.59.29-.39.43-.81.43-1.24s-2-5.65-5.99-15.65h4.61l3.77,9.57,3.77-9.57h4.6l-7.2,18.1c-.42,1.05-1.08,1.86-1.97,2.44-.89.58-1.89.87-2.98.87h0Z"/>
  <path class="cls-2" d="m147.19,29.39l-1.87-4.31h-8.44l-1.53,3.53c-.21.47-.67.78-1.19.78h-3.93l8.7-19.96h4.35l8.7,19.96h-4.78Zm-6.07-14.02l-2.53,5.8h5.04l-2.5-5.8h0Z"/>
  <path class="cls-2" d="m165.26,24.61c0,1.51-.56,2.73-1.68,3.64-1.12.91-2.55,1.37-4.28,1.37-1.15,0-2.35-.2-3.6-.61-1.25-.41-2.37-1.01-3.37-1.81l1.9-2.68c1.61,1.24,3.33,1.86,5.15,1.86.56,0,1-.11,1.32-.33.32-.22.49-.51.49-.87s-.23-.7-.68-1c-.45-.3-1.1-.59-1.96-.86-.85-.27-1.51-.5-1.96-.69-.45-.19-.96-.47-1.54-.83-1.17-.72-1.76-1.79-1.76-3.21s.57-2.57,1.73-3.47c1.15-.89,2.64-1.34,4.46-1.34s3.65.61,5.47,1.83l-1.61,2.86c-1.34-.91-2.68-1.37-4.02-1.37s-2,.36-2,1.08c0,.4.21.71.63.94.42.23,1.12.5,2.1.8.98.3,1.68.54,2.09.7.41.16.91.41,1.48.76,1.07.65,1.61,1.73,1.61,3.24h0Z"/>
  <path class="cls-2" d="m178.75,24.61c0,1.51-.56,2.73-1.68,3.64-1.12.91-2.55,1.37-4.28,1.37-1.15,0-2.35-.2-3.6-.61-1.25-.41-2.37-1.01-3.37-1.81l1.9-2.68c1.61,1.24,3.33,1.86,5.15,1.86.56,0,1-.11,1.32-.33s.49-.51.49-.87-.22-.7-.68-1c-.45-.3-1.1-.59-1.96-.86-.85-.27-1.51-.5-1.96-.69-.45-.19-.96-.47-1.54-.83-1.17-.72-1.76-1.79-1.76-3.21s.57-2.57,1.73-3.47c1.15-.89,2.64-1.34,4.46-1.34s3.65.61,5.47,1.83l-1.61,2.86c-1.34-.91-2.68-1.37-4.02-1.37s-2,.36-2,1.08c0,.4.21.71.63.94.42.23,1.12.5,2.1.8.98.3,1.68.54,2.09.7.41.16.91.41,1.48.76,1.07.65,1.61,1.73,1.61,3.24h0Z"/>
  <path class="cls-2" d="m194.4,27.17c-1.75,1.64-3.8,2.45-6.15,2.45s-4.3-.72-5.83-2.16c-1.54-1.44-2.3-3.36-2.3-5.78s.78-4.34,2.35-5.77c1.57-1.43,3.41-2.14,5.54-2.14s3.94.64,5.43,1.91c1.49,1.28,2.23,3.03,2.23,5.26v2.29h-11.28c.13.84.57,1.52,1.32,2.06.75.53,1.59.8,2.53.8,1.52,0,2.76-.5,3.74-1.51l2.42,2.6h0Zm-4.15-9.11c-.59-.5-1.32-.74-2.17-.74s-1.64.26-2.35.77c-.71.51-1.12,1.21-1.24,2.09h6.79c-.1-.91-.44-1.62-1.04-2.11h0Z"/>
  <path class="cls-2" d="m197.36,14.03l.12-4.48h4.35l-.12,4.48h3.74v3.09h-3.74v6.88c0,.59.15,1.05.46,1.39.31.33.67.5,1.09.5.81,0,1.49-.36,2.05-1.08l1.61,3c-1.34,1.22-2.76,1.83-4.25,1.83s-2.74-.49-3.77-1.45c-1.03-.97-1.54-2.3-1.54-3.97v-7.08"/>
  <path class="cls-2" d="m221,24.61c0,1.51-.56,2.73-1.68,3.64-1.12.91-2.55,1.37-4.28,1.37-1.15,0-2.35-.2-3.6-.61-1.25-.41-2.37-1.01-3.37-1.81l1.9-2.68c1.61,1.24,3.33,1.86,5.15,1.86.56,0,1-.11,1.32-.33.33-.22.49-.51.49-.87s-.22-.7-.68-1c-.45-.3-1.1-.59-1.96-.86-.85-.27-1.51-.5-1.96-.69-.45-.19-.96-.47-1.54-.83-1.17-.72-1.76-1.79-1.76-3.21s.57-2.57,1.73-3.47c1.15-.89,2.64-1.34,4.46-1.34s3.65.61,5.47,1.83l-1.61,2.86c-1.34-.91-2.68-1.37-4.02-1.37s-2,.36-2,1.08c0,.4.21.71.63.94.42.23,1.12.5,2.1.8.98.3,1.68.54,2.09.7.41.16.91.41,1.48.76,1.07.65,1.61,1.73,1.61,3.24h0Z"/>
  <path class="cls-3" d="m20.54,21.55c.56-.5.59-1.36.05-1.9-.51-.5-1.34-.47-1.87,0l-1.71,1.52c-.19.17-.5.08-.56-.17h0c-.03-.13,0-.26.1-.34l6.16-5.49c-.03.33.07.66.33.92.44.44,1.17.41,1.64,0l5.23-4.66c.13-.12.34-.1.45.05,0,0,0,0,0,0,.09.13.07.29-.04.39l-5.95,5.3c-.49.44-.52,1.19-.04,1.66.44.44,1.17.41,1.64,0l5.89-5.26c.11-.1.28-.1.4,0,0,0,0,0,0,0,.14.12.14.33,0,.45l-5.12,4.56c-.49.44-.52,1.19-.04,1.66.44.44,1.17.41,1.64,0l5.72-5.1c.08-.07.2-.09.3-.06h0c.21.08.27.35.1.5l-1.5,1.34c-.46.41-.57,1.13-.18,1.61.42.51,1.18.57,1.67.13l5.13-4.57c1.2-1.07,1.93-2.52,2.16-4.06.38,3.32-.71,6.77-3.27,9.31l-17.77,17.62-8.85-8.78c.88-.32,1.7-.81,2.42-1.45l5.86-5.22h0Z"/>
  <path class="cls-1" d="m30.65,3.81l-7.17,6.38c-.49.44-.52,1.19-.04,1.66.44.44,1.17.41,1.64,0l3.53-3.15c.17-.15.44-.07.49.15h0c.03.11,0,.23-.09.3l-5.47,4.88c.06-.36,0-.73-.25-1.03-.48-.59-1.35-.65-1.91-.15l-5.85,5.21c-.15.13-.39.11-.51-.06,0,0,0,0,0,0-.1-.14-.08-.34.05-.45l6.74-6c.53-.47.65-1.29.2-1.84-.48-.59-1.35-.65-1.91-.15l-6.79,6.05c-.13.12-.33.11-.46,0h0c-.15-.14-.15-.38,0-.51l5.98-5.32c.53-.47.65-1.29.2-1.84-.48-.59-1.35-.65-1.91-.15l-6.78,6.04c-.09.08-.23.11-.35.06h0c-.24-.09-.3-.4-.11-.57l4.04-3.6c.53-.47.65-1.29.2-1.84-.48-.59-1.35-.65-1.91-.15l-8.19,7.29c-.89.79-1.55,1.77-1.98,2.83C-1.06,13.4-.63,7.27,3.35,3.33,7.82-1.11,15.06-1.11,19.53,3.33l1.58,1.57,1.58-1.57c4.29-4.25,11.12-4.42,15.61-.52-2.49-1.19-5.58-.84-7.65,1.01h0Z"/>
</svg>