<svg width="510" height="225" viewBox="0 0 510 225" fill="none" xmlns="http://www.w3.org/2000/svg">
<g clip-path="url(#clip0_995_19693)">
<path d="M510 100.211H509.994C509.994 99.5945 509.801 98.9808 509.415 98.4703L475.663 53.7435L507.281 19.1783C507.779 18.6325 508.038 17.9332 508.038 17.2251V2.9033C508.038 2.50793 507.96 2.10666 507.791 1.729C507.325 0.678617 506.277 0 505.122 0H469.173C468.348 0 467.561 0.34521 467.009 0.953015L439.922 30.6824V2.9033C439.922 1.30117 438.615 0 437 0H404.549C404.516 0 404.486 0.00295051 404.456 0.00590102C404.424 0.00590102 404.394 0 404.364 0H372.192C370.58 0 369.27 1.29822 369.27 2.9033V17.2251V39.1149L337.225 1.04153C336.67 0.383566 335.851 0 334.987 0H307.852C306.24 0 304.931 1.29822 304.931 2.9033V86.329L267.723 1.7408C267.257 0.684518 266.209 0 265.048 0H232.596C231.435 0 230.384 0.681568 229.921 1.7408L192.713 86.329V2.9033C192.713 1.30117 191.407 0 189.792 0H156.782C155.17 0 153.861 1.29822 153.861 2.9033V34.4767H129.208V2.9033C129.208 1.30117 127.902 0 126.287 0H2.92129C1.30627 0 0 1.29822 0 2.9033V42.6673C0 44.2694 1.30627 45.5706 2.92129 45.5706H28.6756V114.539C28.6756 116.141 29.9818 117.442 31.5969 117.442H64.6069C66.2189 117.442 67.5282 116.144 67.5282 114.539V45.5677H90.3641V105.339H89.0371C87.9861 105.339 87.0183 105.9 86.4987 106.808C86.3087 107.139 86.193 107.499 86.1455 107.865L86.1187 107.835V122.328H86.1336C86.0831 122.921 86.2137 123.526 86.5314 124.057L123.048 184.953V219.881C123.048 221.483 124.354 222.784 125.969 222.784H158.979C160.591 222.784 161.9 221.486 161.9 219.881V185.366L173.668 165.606C173.493 167.447 173.404 169.321 173.404 171.224C173.404 181.453 175.948 190.777 180.966 198.941C185.98 207.099 192.998 213.561 201.827 218.143C210.603 222.699 220.611 225.006 231.575 225.006C242.539 225.006 252.543 222.696 261.322 218.143C270.151 213.561 277.169 207.102 282.184 198.941C283.873 196.191 285.277 193.306 286.402 190.302C288.409 199.065 292.408 206.365 298.376 212.094C307.291 220.66 319.786 225.003 335.515 225.003C351.244 225.003 363.737 220.66 372.655 212.094C376.179 208.71 379.014 204.777 381.16 200.322C380.866 201.679 380.715 203.101 380.715 204.588C380.715 210.032 382.764 214.717 386.804 218.515C390.794 222.271 395.942 224.174 402.099 224.174C408.257 224.174 413.401 222.271 417.394 218.515C421.435 214.714 423.483 210.032 423.483 204.591V190.267C423.483 185.112 421.702 180.716 418.196 177.181L423.887 122.874C423.973 122.057 423.706 121.242 423.151 120.632C423.005 120.469 422.839 120.328 422.664 120.204L422.952 117.448H437.015C438.627 117.448 439.937 116.15 439.937 114.545V91.6074L444.232 86.8542L466.576 116.294C467.128 117.02 467.992 117.448 468.906 117.448H507.091C508.198 117.448 509.207 116.828 509.703 115.843C509.953 115.35 510.048 114.807 510 114.279H510.012V100.22L510 100.211ZM90.3611 14.3247V25.4393H64.6069C62.9948 25.4393 61.6856 26.7375 61.6856 28.3426V97.3108H34.5152V28.3426C34.5152 26.7405 33.2089 25.4393 31.5939 25.4393H5.83962V5.80365H90.3611V14.3247ZM96.2008 28.3426V5.80365H123.371V37.3771C123.371 38.9792 124.677 40.2804 126.292 40.2804H156.785C158.397 40.2804 159.706 38.9821 159.706 37.3771V5.80365H186.877V97.3108H159.706V64.3477C159.706 62.7455 158.4 61.4444 156.785 61.4444H126.292C124.68 61.4444 123.371 62.7426 123.371 64.3477V97.3108H96.2008V28.3426ZM155.333 117.053L143.874 136.193L129.214 111.535V81.5757H153.867V114.539C153.867 115.616 154.457 116.554 155.336 117.056L155.333 117.053ZM156.458 168.763C156.191 169.212 156.052 169.722 156.052 170.241V202.65H128.881V169.825C128.881 169.303 128.739 168.79 128.469 168.338L99.2824 119.664L97.9494 117.439L94.1731 111.143H122.196L125.939 117.439L141.35 143.359C141.876 144.242 142.829 144.784 143.859 144.784H143.865C144.895 144.784 145.848 144.245 146.373 143.365L161.897 117.439L165.668 111.143H190.778L187.028 117.439L185.704 119.664L156.461 168.763H156.458ZM277.19 181.586C272.737 188.833 266.485 194.58 258.609 198.667C250.676 202.783 241.577 204.872 231.566 204.872C221.555 204.872 212.456 202.786 204.523 198.667C196.647 194.58 190.395 188.833 185.941 181.586C181.491 174.346 179.235 166.04 179.235 156.896C179.235 147.753 181.491 139.447 185.941 132.203C188.875 127.433 192.592 123.317 197.033 119.891C198.149 119.029 199.31 118.212 200.518 117.439C201.804 116.616 203.137 115.843 204.523 115.123C211.678 111.411 219.783 109.355 228.648 108.986C229.612 108.945 230.583 108.921 231.566 108.921C241.577 108.921 250.676 111.007 258.609 115.126C266.485 119.215 272.737 124.963 277.19 132.209C279.325 135.682 280.949 139.4 282.065 143.339C283.279 147.611 283.897 152.143 283.897 156.902C283.897 166.049 281.64 174.354 277.19 181.595V181.586ZM284.885 122.564V134.222C284.081 132.496 283.178 130.811 282.175 129.176C277.161 121.018 270.142 114.559 261.313 109.974C252.537 105.422 242.53 103.111 231.566 103.111C231.349 103.111 231.135 103.117 230.919 103.12L231.943 100.477H265.14L270.994 115.577C271.428 116.699 272.511 117.436 273.72 117.436H284.885V122.561V122.564ZM275.724 97.3108L269.869 82.2101C269.436 81.0889 268.352 80.3512 267.144 80.3512H229.936C228.728 80.3512 227.644 81.0889 227.211 82.2101L221.356 97.3108H194.254L230.218 15.5551L234.508 5.80365H263.139L267.429 15.5551L303.39 97.3108H275.727H275.724ZM380.282 117.439V161.762C380.282 168.66 379.284 174.847 377.316 180.149C375.38 185.363 372.444 189.886 368.585 193.595C364.716 197.312 360.005 200.142 354.587 202.01C349.071 203.91 342.652 204.875 335.506 204.875C328.36 204.875 321.942 203.91 316.426 202.013C311.008 200.145 306.296 197.315 302.428 193.598C298.569 189.892 295.632 185.366 293.697 180.152C291.728 174.847 290.731 168.66 290.731 161.765V111.146H317.901V160.791C317.901 168.672 319.365 174.352 322.372 178.152C322.871 178.783 323.408 179.359 323.978 179.893C326.98 182.701 330.937 184.127 335.788 184.127C340.639 184.127 344.597 182.699 347.601 179.89C348.168 179.359 348.706 178.783 349.204 178.152C352.212 174.346 353.675 168.666 353.675 160.788V111.143H380.288V117.439H380.282ZM323.738 160.788V117.439H340.022C341.634 117.439 342.943 116.141 342.943 114.536V78.3213L365.681 105.336H350.751C349.139 105.336 347.83 106.634 347.83 108.239V160.788C347.83 167.223 346.746 171.858 344.606 174.564C342.608 177.093 339.722 178.32 335.782 178.32C331.843 178.32 328.954 177.093 326.959 174.564C324.822 171.861 323.738 167.229 323.738 160.788ZM378.595 97.3108L342.263 54.1448C341.474 53.2095 340.182 52.8613 339.027 53.2803C337.872 53.6963 337.103 54.788 337.103 56.0095V97.3137H310.77V5.80365H333.621L369.273 48.1612L369.953 48.9696C370.743 49.9049 372.034 50.2531 373.189 49.8341C374.344 49.4181 375.113 48.3264 375.113 47.1049V5.80365H401.443V97.3108H378.592H378.595ZM417.614 190.951C417.454 194.48 416.061 197.433 413.369 199.968C410.456 202.709 406.766 204.04 402.087 204.04C397.409 204.04 393.718 202.709 390.806 199.968C388.11 197.436 386.718 194.48 386.561 190.948C386.552 190.721 386.546 190.494 386.546 190.261C386.546 188.266 386.908 186.472 387.638 184.852C388.336 183.303 389.372 181.914 390.761 180.666C393.683 178.037 397.388 176.759 402.09 176.759C406.793 176.759 410.498 178.037 413.419 180.666C414.806 181.914 415.842 183.303 416.542 184.855C417.273 186.475 417.635 188.269 417.635 190.264C417.635 190.497 417.629 190.727 417.62 190.957L417.614 190.951ZM417.071 117.439L416.836 119.664L412.042 165.394H392.127L387.332 119.664L387.098 117.439L386.439 111.143H417.724L417.065 117.439H417.071ZM497.733 97.3108H470.352L446.75 66.2124C446.224 65.519 445.414 65.0971 444.544 65.0617C443.674 65.0233 442.831 65.3774 442.246 66.0206L434.833 74.223C434.352 74.7571 434.085 75.4475 434.085 76.1615V97.3078H407.473V5.80365H434.085V38.2121C434.085 39.4129 434.827 40.4869 435.955 40.9206C437.081 41.3514 438.36 41.0504 439.171 40.1594L439.928 39.3303L470.474 5.80365H498.526L490.733 14.3247L463.8 43.7679C462.859 44.7976 462.784 46.3466 463.625 47.4619L471.667 58.1191L501.242 97.3108H497.733ZM251.267 34.1079C250.833 32.9897 249.75 32.252 248.544 32.252C247.339 32.252 246.255 32.9897 245.822 34.1079L236.31 58.5735C235.963 59.4675 236.081 60.4707 236.625 61.2614C237.168 62.0492 238.07 62.5213 239.032 62.5213H258.056C259.018 62.5213 259.921 62.0492 260.464 61.2614C261.007 60.4737 261.126 59.4675 260.779 58.5735L251.267 34.1079ZM244.198 133.074C240.44 130.814 236.188 129.666 231.566 129.666C226.943 129.666 222.689 130.814 218.934 133.074C215.181 135.334 212.165 138.562 209.965 142.675C207.789 146.744 206.687 151.526 206.687 156.896C206.687 162.266 207.792 167.052 209.965 171.118C210.799 172.676 211.749 174.107 212.812 175.408C214.555 177.538 216.603 179.317 218.931 180.719C222.683 182.982 226.935 184.127 231.566 184.127C236.197 184.127 240.443 182.979 244.198 180.719C246.529 179.314 248.577 177.538 250.32 175.408C251.383 174.107 252.336 172.679 253.167 171.121C255.343 167.052 256.447 162.269 256.447 156.899C256.447 151.529 255.343 146.75 253.167 142.678C250.967 138.568 247.951 135.34 244.198 133.077V133.074ZM248.01 168.391C246.288 171.61 244.053 174.018 241.173 175.75C238.302 177.479 235.161 178.32 231.566 178.32C227.971 178.32 224.827 177.479 221.959 175.75C219.082 174.018 216.844 171.61 215.122 168.391C214.406 167.058 213.842 165.609 213.421 164.057C213.842 162.505 214.406 161.057 215.122 159.723C216.844 156.504 219.082 154.096 221.959 152.361C224.83 150.632 227.974 149.791 231.566 149.791C235.158 149.791 238.299 150.632 241.173 152.361C244.053 154.096 246.291 156.504 248.01 159.72C248.725 161.057 249.29 162.505 249.711 164.057C249.29 165.606 248.725 167.055 248.01 168.391Z" fill="#4F6CC4"/>
<path d="M5.83984 14.3247V25.4393H31.5941C33.2062 25.4393 34.5154 26.7375 34.5154 28.3426V97.3108H61.6858V28.3426C61.6858 26.7405 62.9921 25.4393 64.6071 25.4393H90.3614V5.80365H5.83984V14.3247Z" fill="white"/>
<path d="M159.704 14.3247V37.3771C159.704 38.9792 158.397 40.2804 156.782 40.2804H126.29C124.678 40.2804 123.369 38.9821 123.369 37.3771V5.80365H96.1982V97.3108H123.369V64.3477C123.369 62.7455 124.675 61.4444 126.29 61.4444H156.782C158.394 61.4444 159.704 62.7426 159.704 64.3477V97.3108H186.874V5.80365H159.704V14.3247Z" fill="white"/>
<path d="M263.139 5.80365H234.508L230.218 15.5551L194.257 97.3108H221.359L227.213 82.2101C227.647 81.0889 228.73 80.3512 229.939 80.3512H267.147C268.355 80.3512 269.439 81.0889 269.872 82.2101L275.726 97.3108H303.39L267.426 15.5551L263.136 5.80365H263.139ZM260.464 61.2614C259.921 62.0492 259.018 62.5213 258.056 62.5213H239.032C238.07 62.5213 237.168 62.0492 236.624 61.2614C236.081 60.4737 235.962 59.4675 236.31 58.5735L245.822 34.1079C246.255 32.9897 247.339 32.252 248.544 32.252C249.75 32.252 250.833 32.9897 251.267 34.1079L260.779 58.5735C261.126 59.4675 261.007 60.4707 260.464 61.2614Z" fill="white"/>
<path d="M375.113 14.3247V47.1078C375.113 48.3294 374.344 49.4181 373.189 49.8371C372.035 50.2531 370.74 49.9079 369.953 48.9726L369.274 48.1641L333.621 5.8066H310.771V97.3108H337.104V56.0066C337.104 54.7851 337.873 53.6963 339.027 53.2774C340.182 52.8613 341.477 53.2065 342.263 54.1419L378.596 97.3078H401.446V5.80365H375.116V14.3247H375.113Z" fill="white"/>
<path d="M471.664 58.1191L463.621 47.4619C462.781 46.3496 462.856 44.7976 463.797 43.7679L490.729 14.3247L498.523 5.80365H470.47L439.925 39.3303L439.168 40.1594C438.357 41.0504 437.077 41.3514 435.952 40.9206C434.827 40.4898 434.082 39.4129 434.082 38.2121V5.80365H407.47V97.3108H434.082V76.1645C434.082 75.4475 434.349 74.7571 434.83 74.226L442.243 66.0236C442.825 65.3774 443.671 65.0263 444.541 65.0646C445.414 65.103 446.221 65.5249 446.747 66.2153L470.349 97.3137H501.239L471.664 58.1221V58.1191Z" fill="white"/>
<path d="M187.025 117.439L190.774 111.143H165.664L161.894 117.439L146.37 143.365C145.845 144.245 144.889 144.784 143.862 144.784H143.856C142.825 144.784 141.87 144.242 141.347 143.359L125.936 117.439L122.192 111.143H94.1699L97.9462 117.439L99.2792 119.664L128.465 168.338C128.736 168.787 128.878 169.3 128.878 169.825V202.65H156.048V170.241C156.048 169.722 156.188 169.212 156.455 168.763L185.698 119.664L187.022 117.439H187.025Z" fill="#3CCCAA"/>
<path d="M277.19 132.204C272.737 124.957 266.484 119.209 258.608 115.12C250.675 111.004 241.576 108.915 231.565 108.915C230.583 108.915 229.612 108.942 228.647 108.98C219.782 109.349 211.677 111.405 204.523 115.117C203.136 115.837 201.803 116.61 200.518 117.433C199.309 118.206 198.149 119.024 197.032 119.885C192.591 123.311 188.874 127.427 185.941 132.198C181.491 139.438 179.234 147.747 179.234 156.89C179.234 166.034 181.491 174.343 185.941 181.58C190.394 188.827 196.646 194.574 204.523 198.661C212.455 202.777 221.555 204.866 231.565 204.866C241.576 204.866 250.675 202.78 258.608 198.661C266.484 194.574 272.737 188.827 277.19 181.58C281.64 174.343 283.896 166.034 283.896 156.887C283.896 152.128 283.279 147.599 282.064 143.324C280.945 139.388 279.324 135.667 277.19 132.195V132.204ZM253.166 171.115C252.332 172.673 251.382 174.104 250.319 175.402C248.576 177.532 246.528 179.311 244.197 180.713C240.442 182.976 236.191 184.121 231.565 184.121C226.94 184.121 222.686 182.973 218.93 180.713C216.6 179.311 214.554 177.535 212.811 175.402C211.749 174.101 210.796 172.67 209.964 171.112C207.788 167.046 206.687 162.263 206.687 156.89C206.687 151.518 207.791 146.738 209.964 142.669C212.164 138.559 215.181 135.328 218.933 133.068C222.692 130.805 226.94 129.66 231.565 129.66C236.191 129.66 240.439 130.808 244.197 133.068C247.95 135.328 250.969 138.559 253.166 142.669C255.342 146.741 256.447 151.523 256.447 156.89C256.447 162.257 255.342 167.043 253.166 171.112V171.115Z" fill="#3CCCAA"/>
<path d="M353.669 111.143V160.788C353.669 168.666 352.205 174.346 349.198 178.152C348.699 178.783 348.162 179.359 347.595 179.89C344.593 182.699 340.633 184.127 335.782 184.127C330.931 184.127 326.971 182.699 323.972 179.893C323.402 179.362 322.865 178.783 322.366 178.152C319.359 174.352 317.895 168.672 317.895 160.791V111.146H290.725V161.765C290.725 168.663 291.722 174.85 293.69 180.152C295.626 185.366 298.562 189.889 302.422 193.598C306.29 197.315 311.001 200.145 316.419 202.013C321.936 203.913 328.354 204.875 335.5 204.875C342.646 204.875 349.064 203.91 354.58 202.01C360.001 200.142 364.71 197.312 368.578 193.595C372.438 189.889 375.374 185.366 377.309 180.149C379.278 174.844 380.275 168.657 380.275 161.762V111.143H353.663H353.669Z" fill="#3CCCAA"/>
<path d="M387.335 119.664L392.127 165.394H412.041L416.833 119.664L417.067 117.439L417.727 111.143H386.441L387.1 117.439L387.335 119.664Z" fill="#3CCCAA"/>
<path d="M413.411 180.663C410.489 178.034 406.784 176.756 402.085 176.756C397.385 176.756 393.677 178.034 390.756 180.663C389.369 181.911 388.333 183.3 387.633 184.849C386.902 186.469 386.54 188.263 386.54 190.258C386.54 190.488 386.546 190.718 386.555 190.945C386.712 194.477 388.105 197.433 390.8 199.965C393.713 202.703 397.4 204.037 402.082 204.037C406.763 204.037 410.451 202.706 413.363 199.965C416.056 197.433 417.451 194.477 417.608 190.948C417.617 190.721 417.623 190.488 417.623 190.255C417.623 188.26 417.261 186.466 416.531 184.846C415.83 183.297 414.794 181.908 413.408 180.657L413.411 180.663Z" fill="#3CCCAA"/>
</g>
<defs>
<clipPath id="clip0_995_19693">
<rect width="510" height="225" fill="white"/>
</clipPath>
</defs>
</svg>
