<svg width="80" height="58" viewBox="0 0 80 58" fill="none" xmlns="http://www.w3.org/2000/svg">
<g id="Layer_1" clip-path="url(#clip0_2684_1629)">
<g id="evWPza.tif">
<path id="Vector" d="M67.1064 57.9359C65.1275 57.9359 63.1501 57.9332 61.1712 57.9291C58.7849 57.9237 57.1941 56.349 57.1168 53.9201C56.9953 50.0885 55.9098 46.8654 53.797 44.0667C50.8639 40.1778 47.1354 37.9563 42.4002 37.2768C41.5827 37.1594 40.7528 37.0994 39.9339 37.0994C31.9259 37.0994 24.9052 42.7513 23.2398 50.5388C23.0492 51.4284 22.9871 52.4177 22.9194 53.4643C22.9084 53.6308 22.8987 53.7973 22.8877 53.9638C22.722 56.4445 21.156 57.9264 18.6979 57.9305C16.7094 57.9332 14.7195 57.9346 12.7309 57.9346C10.7424 57.9346 8.76077 57.9346 6.77638 57.9319C4.07804 57.9305 2.46788 56.3408 2.4665 53.6799C2.4665 46.3373 2.4665 38.9961 2.4665 31.6535V26.9977C0.976473 26.4396 0.0125843 25.0737 0.00567968 23.3543C-0.00122496 21.7019 0.0015369 20.003 0.00429875 18.5048C0.00706061 16.679 0.961283 15.3035 2.49273 14.7523C1.81608 14.5053 1.34242 14.1287 1.02757 13.793C0.512481 13.2458 -0.0813189 12.2729 0.00982247 10.746C0.120297 8.9011 1.48604 7.43558 3.33372 7.18041C3.67481 7.13402 3.97861 7.1272 4.22994 7.1272H4.48127C17.9536 7.1272 31.4287 7.1272 44.9011 7.1272H75.7428C75.925 7.1272 76.1432 7.12993 76.389 7.15039C78.3568 7.3155 79.8372 8.77011 79.9863 10.69C80.1355 12.6086 79.1661 14.1437 77.4813 14.7468C79.0059 15.294 79.9877 16.6708 79.9946 18.4447C80.0015 20.1722 80.0015 21.7797 79.9946 23.3584C79.9864 25.0723 79.0238 26.4355 77.538 26.9977V53.3988L77.5393 53.5339C77.5393 53.6922 77.5393 53.8519 77.5352 54.0102C77.4606 56.3476 75.8449 57.9223 73.5153 57.9278C71.379 57.9332 69.2427 57.9359 67.1064 57.9359Z" fill="#4F6CC4"/>
<path id="Vector_2" d="M2.76749 23.3435C2.77026 24.0872 3.16244 24.4993 3.91228 24.5429C4.32104 24.5675 4.73256 24.547 5.22555 24.547V25.3821C5.22555 34.8152 5.22555 44.2483 5.22555 53.6814C5.22555 54.8494 5.58597 55.2028 6.77495 55.2042C10.7465 55.2069 14.7194 55.2083 18.691 55.2028C19.7129 55.2015 20.0623 54.7921 20.1299 53.7851C20.2155 52.5106 20.2694 51.2184 20.5359 49.9753C22.6708 39.9895 32.3235 33.0713 42.7965 34.5764C48.2995 35.3665 52.6978 38.0437 56.0106 42.4362C58.557 45.812 59.7433 49.6532 59.8758 53.8356C59.9062 54.7894 60.2818 55.1987 61.1767 55.2015C65.2863 55.211 69.396 55.211 73.5056 55.2001C74.3466 55.1974 74.7457 54.7662 74.7719 53.9256C74.7774 53.751 74.7733 53.5763 74.7733 53.4016C74.7733 44.0463 74.7733 34.691 74.7733 25.3357V24.5497C75.2594 24.5497 75.6709 24.5702 76.0797 24.5456C76.8295 24.5006 77.2272 24.0872 77.2313 23.3489C77.2327 22.9246 77.2327 22.4988 77.2341 22.0745H2.76611C2.76611 22.4975 2.76611 22.9218 2.76887 23.3449L2.76749 23.3435ZM63.6264 28.2668C64.4508 28.249 65.2753 28.2627 66.0997 28.2627C66.9048 28.2627 67.7098 28.2504 68.5135 28.2654C69.3034 28.279 69.766 28.7034 69.8006 29.4062C69.8365 30.1539 69.4056 30.6724 68.6005 30.6888C66.913 30.7243 65.2242 30.7243 63.5381 30.6847C62.7661 30.667 62.3505 30.158 62.3643 29.4307C62.3781 28.7334 62.849 28.2845 63.6278 28.2681L63.6264 28.2668ZM59.8662 34.3704C61.5329 34.3403 63.2025 34.339 64.8693 34.3717C65.6523 34.3867 66.1149 34.9325 66.0803 35.6571C66.0458 36.364 65.5887 36.7815 64.7906 36.7951C63.9869 36.8102 63.1818 36.7979 62.3767 36.7979C61.5523 36.7979 60.7279 36.8102 59.9034 36.7938C59.0928 36.7774 58.6385 36.3271 58.6344 35.5766C58.6302 34.8848 59.0901 34.3826 59.8648 34.369L59.8662 34.3704ZM21.3603 35.6148C21.3493 36.3244 20.8881 36.7774 20.112 36.7938C19.2682 36.8129 18.4245 36.7979 17.5807 36.7979C16.7756 36.7979 15.9706 36.8115 15.1669 36.7938C14.3839 36.776 13.9447 36.3489 13.9171 35.6203C13.8909 34.9216 14.3383 34.3908 15.1006 34.3745C16.7881 34.339 18.4769 34.339 20.1631 34.3731C20.9198 34.3881 21.3714 34.9134 21.3603 35.6135V35.6148ZM10.1955 29.3925C10.2218 28.6993 10.6899 28.2777 11.4881 28.264C12.3125 28.2504 13.1369 28.2613 13.9613 28.2613C14.7664 28.2613 15.5715 28.249 16.3752 28.2668C17.1444 28.2831 17.6097 28.7348 17.6332 29.4416C17.6553 30.1444 17.2134 30.6684 16.4456 30.6861C14.7581 30.7229 13.0692 30.7229 11.3817 30.6861C10.5808 30.6684 10.1665 30.158 10.1955 29.3925Z" fill="white"/>
<path id="Vector_3" d="M77.2316 18.4556C77.2288 17.6697 76.8035 17.2371 75.9929 17.2207C75.0497 17.2016 74.1052 17.2153 73.162 17.2153C72.4798 17.2153 71.7976 17.2153 71.1085 17.2153V12.3043C72.6207 12.3043 74.0913 12.307 75.562 12.3015C75.8161 12.3015 76.0757 12.2961 76.3229 12.2429C77.0023 12.0969 77.2896 11.6548 77.2316 10.9002C77.186 10.3202 76.7773 9.92315 76.1545 9.8713C75.939 9.85356 75.7222 9.85902 75.5054 9.85902C51.8308 9.85902 28.1547 9.85902 4.48008 9.85902C4.22461 9.85902 3.96637 9.85083 3.71505 9.88494C3.17096 9.95999 2.79949 10.3748 2.76773 10.9083C2.71387 11.813 3.13782 12.2838 4.0879 12.2975C5.48402 12.3179 6.88014 12.3029 8.27625 12.3029C8.48339 12.3029 8.69053 12.3029 8.88524 12.3029V17.2139H8.48754C7.0127 17.2139 5.53787 17.2043 4.06304 17.218C3.17648 17.2262 2.76911 17.6465 2.76773 18.5102C2.76773 18.9046 2.76773 19.2989 2.76773 19.6933H77.2371C77.2371 19.2798 77.2371 18.8677 77.2343 18.4543L77.2316 18.4556ZM16.3492 17.1839H11.4565V12.3302H16.3492V17.1839ZM23.8241 17.1866H18.9315V12.3343H23.8241V17.1866ZM31.277 17.1839H26.3913V12.3316H31.277V17.1839ZM38.7216 17.173H33.8165V12.3466H38.7216V17.173ZM46.1579 17.1675H41.2708V12.3302H46.1579V17.1675ZM53.6149 17.1825H48.7182V12.352H53.6149V17.1825ZM61.0637 17.173H56.1724V12.3384H61.0637V17.173ZM68.54 17.1839H63.6391V12.352H68.54V17.1839Z" fill="#33B899"/>
</g>
<path id="Vector_4" d="M39.9905 28.2298C47.5149 28.2298 53.6147 22.2024 53.6147 14.7673C53.6147 7.33209 47.5149 1.30469 39.9905 1.30469C32.466 1.30469 26.3662 7.33209 26.3662 14.7673C26.3662 22.2024 32.466 28.2298 39.9905 28.2298Z" fill="white"/>
<path id="Vector_5" d="M39.9903 29.3214C31.8691 29.3214 25.2627 22.7934 25.2627 14.7686C25.2627 6.74369 31.8691 0.214355 39.9903 0.214355C48.1116 0.214355 54.7179 6.74233 54.7179 14.7672C54.7179 22.7921 48.1116 29.32 39.9903 29.32V29.3214ZM39.9903 2.39762C33.087 2.39762 27.4708 7.94722 27.4708 14.7686C27.4708 21.5899 33.087 27.1395 39.9903 27.1395C46.8936 27.1395 52.5098 21.5899 52.5098 14.7686C52.5098 7.94722 46.8936 2.39762 39.9903 2.39762Z" fill="#4F6CC4"/>
<path id="Vector_6" d="M44.2904 15.0116C43.5226 14.3579 42.3819 13.8503 40.8684 13.4874C39.3549 13.1258 38.3648 12.7887 37.9008 12.4749C37.4354 12.1624 37.2034 11.7094 37.2034 11.1185C37.2034 10.5277 37.4354 10.0856 37.9008 9.79354C38.3662 9.50153 38.96 9.35552 39.685 9.35552C40.41 9.35552 41.146 9.48106 41.8917 9.73077C42.2411 9.84812 42.5559 9.98048 42.8362 10.1279C43.3486 10.3967 43.9838 10.2466 44.3194 9.77853C44.7157 9.22589 44.5417 8.4522 43.9424 8.12198C43.5253 7.89273 43.0738 7.69897 42.5891 7.53932C42.1444 7.39331 41.6997 7.28278 41.2523 7.20637V6.04787C41.2523 5.35878 40.6861 4.79932 39.9888 4.79932C39.2914 4.79932 38.7252 5.35878 38.7252 6.04787V7.14769C37.7158 7.28415 36.8389 7.62665 36.0945 8.17519C35.1017 8.90523 34.6059 9.94637 34.6059 11.2959C34.6059 12.6454 35.0423 13.647 35.915 14.302C36.3514 14.6499 36.8513 14.9324 37.4147 15.1466C37.9781 15.3622 38.8012 15.5983 39.8866 15.8562C40.9706 16.1141 41.7343 16.3993 42.1789 16.7118C42.6222 17.0243 42.8445 17.4636 42.8445 18.0272C42.8445 18.5907 42.6084 19.0424 42.1375 19.3835C41.6652 19.7247 41.0286 19.8953 40.2263 19.8953C38.9337 19.8953 37.6785 19.4804 36.4591 18.6522C35.9371 18.2974 35.2273 18.3943 34.8213 18.8759C34.356 19.4286 34.4802 20.2541 35.0823 20.658C36.205 21.4126 37.4202 21.8875 38.728 22.0853V23.2247C38.728 23.9138 39.2942 24.4733 39.9915 24.4733C40.6889 24.4733 41.2551 23.9138 41.2551 23.2247V22.1222C42.3391 21.9762 43.2505 21.6037 43.9866 21.0033C44.9587 20.2105 45.4434 19.1775 45.4434 17.9044C45.4434 16.6313 45.0595 15.6679 44.2917 15.0143L44.2904 15.0116Z" fill="#4F6CC4"/>
</g>
<defs>
<clipPath id="clip0_2684_1629">
<rect width="80" height="57.7215" fill="white" transform="translate(0 0.214355)"/>
</clipPath>
</defs>
</svg>
