<svg width="73" height="79" viewBox="0 0 73 79" fill="none" xmlns="http://www.w3.org/2000/svg">
<g id="Layer_1" clip-path="url(#clip0_2684_825)">
<path id="Vector" d="M36.4999 3.88232C23.5142 3.88232 11.2906 5.65701 3.80181 8.62854L3.50879 8.74448V23.834C3.50879 34.7514 6.68569 45.3228 12.6982 54.402C18.5272 63.2062 26.6948 70.0918 36.3145 74.3125L36.4999 74.3929L36.6854 74.3125C46.3069 70.0918 54.4727 63.2062 60.3016 54.402C66.3142 45.321 69.4911 34.7514 69.4911 23.834V8.74448L69.198 8.62854C61.7092 5.65701 49.4857 3.88232 36.4999 3.88232ZM36.4999 55.1388C24.9144 55.1388 15.4875 45.6333 15.4875 33.951C15.4875 22.2688 24.9144 12.7632 36.4999 12.7632C48.0855 12.7632 57.5123 22.2688 57.5123 33.951C57.5123 45.6333 48.0855 55.1388 36.4999 55.1388Z" fill="#33B899"/>
<path id="Vector_2" d="M36.4996 16.3032C26.8484 16.3032 18.9961 24.2211 18.9961 33.9528C18.9961 43.6846 26.8484 51.6025 36.4996 51.6025C46.1509 51.6025 54.0032 43.6846 54.0032 33.9528C54.0032 24.2211 46.1509 16.3032 36.4996 16.3032ZM46.1601 30.4708L34.2463 42.4841C33.7771 42.9572 33.154 43.2171 32.49 43.2171C31.8261 43.2171 31.2029 42.9572 30.7337 42.4841L26.8428 38.5607C26.3736 38.0876 26.1158 37.4592 26.1158 36.7897C26.1158 36.1202 26.3736 35.4919 26.8428 35.0188C27.312 34.5457 27.9352 34.2857 28.5991 34.2857C29.2631 34.2857 29.8862 34.5457 30.3554 35.0188L32.49 37.1712L42.6476 26.9289C43.1168 26.4558 43.7399 26.1958 44.4038 26.1958C45.0678 26.1958 45.6909 26.4558 46.1601 26.9289C46.6293 27.402 46.8871 28.0322 46.8871 28.6999C46.8871 29.3675 46.6293 29.9977 46.1601 30.4708Z" fill="white"/>
<path id="Vector_3" d="M71.9651 5.96564C64.2074 2.44619 50.949 0.344238 36.5 0.344238C22.051 0.344238 8.79442 2.44619 1.03486 5.96564C0.406153 6.24989 0 6.88384 0 7.5795V23.8359C0 35.4546 3.38275 46.7049 9.7792 56.3694C16.1775 66.0338 25.1852 73.4954 35.8268 77.9517C36.2552 78.1313 36.7448 78.1313 37.1714 77.9517C47.8148 73.4972 56.8206 66.0338 63.2189 56.3694C69.6172 46.7049 72.9981 35.4565 72.9981 23.8359V7.57763C72.9981 6.88197 72.592 6.24989 71.9633 5.96377L71.9651 5.96564ZM69.4911 23.8359C69.4911 34.7533 66.3142 45.3248 60.3017 54.4039C54.4727 63.2082 46.3052 70.0937 36.6855 74.3145L36.5 74.3949L36.3145 74.3145C26.693 70.0937 18.5273 63.2082 12.6983 54.4039C6.68576 45.3229 3.50887 34.7533 3.50887 23.8359V8.74455L3.80189 8.6286C11.2907 5.65708 23.5142 3.88239 36.5 3.88239C49.4858 3.88239 61.7093 5.65708 69.1981 8.6286L69.4911 8.74455V23.8341V23.8359Z" fill="#4F6CC4"/>
<path id="Vector_4" d="M36.4997 12.7651C24.9141 12.7651 15.4873 22.2707 15.4873 33.9529C15.4873 45.6352 24.9141 55.1407 36.4997 55.1407C48.0853 55.1407 57.5121 45.6352 57.5121 33.9529C57.5121 22.2707 48.0853 12.7651 36.4997 12.7651ZM36.4997 51.6007C26.8485 51.6007 18.9962 43.6828 18.9962 33.951C18.9962 24.2193 26.8485 16.3014 36.4997 16.3014C46.1509 16.3014 54.0032 24.2193 54.0032 33.951C54.0032 43.6828 46.1509 51.6007 36.4997 51.6007Z" fill="#4F6CC4"/>
<path id="Vector_5" d="M44.4042 26.1941C43.7403 26.1941 43.1172 26.454 42.6479 26.9272L32.4904 37.1695L30.3558 35.017C29.8866 34.5439 29.2634 34.284 28.5995 34.284C27.9356 34.284 27.3124 34.5439 26.8432 35.017C26.374 35.4902 26.1162 36.1204 26.1162 36.788C26.1162 37.4556 26.374 38.0858 26.8432 38.5589L30.7341 42.4823C31.2033 42.9554 31.8265 43.2154 32.4904 43.2154C33.1543 43.2154 33.7775 42.9554 34.2467 42.4823L46.1605 30.469C46.6297 29.9959 46.8875 29.3676 46.8875 28.6981C46.8875 28.0286 46.6297 27.4003 46.1605 26.9272C45.6913 26.454 45.0663 26.1941 44.4042 26.1941Z" fill="#4F6CC4"/>
</g>
<defs>
<clipPath id="clip0_2684_825">
<rect width="73" height="77.7403" fill="white" transform="translate(0 0.344238)"/>
</clipPath>
</defs>
</svg>
