<svg width="80" height="90" viewBox="0 0 80 90" fill="none" xmlns="http://www.w3.org/2000/svg">
<g id="Group 438">
<path id="Vector" d="M43.909 15.6385C43.781 15.463 43.6546 15.2875 43.5235 15.1152C43.2849 14.8006 43.0464 14.4954 42.8125 14.2093C42.4887 13.8109 42.1459 13.4109 41.7967 13.0188L41.6514 12.8544C41.5566 12.7469 41.4618 12.6378 41.3639 12.5319C40.9468 12.0829 40.4887 11.6197 40.0005 11.1533C39.5155 11.6165 39.0589 12.0766 38.6403 12.5272C38.5455 12.6283 38.4539 12.7343 38.3622 12.8386C38.3085 12.9003 38.2548 12.9619 38.1995 13.0236C37.8535 13.4125 37.5123 13.8109 37.1869 14.2093C36.9562 14.4923 36.724 14.7895 36.4775 15.1152C36.3543 15.2764 36.2374 15.4377 36.1189 15.599L36.013 15.7428C29.3431 24.9772 27.9086 36.3696 27.6479 42.3472V43.9108C30.1914 42.7772 34.7129 41.1994 40.1822 41.1994C44.3718 41.1994 48.462 42.1101 52.3499 43.906V42.3108C52.0845 36.3411 50.6453 24.963 43.9848 15.7412L43.9105 15.6385H43.909Z" fill="white"/>
<path id="Vector_2" d="M33.9075 12.4752C34.1428 12.1764 34.383 11.8807 34.6215 11.593L34.7242 11.4697C34.7716 11.4128 34.819 11.3558 34.8664 11.3005C35.0086 11.1314 35.1555 10.9653 35.2977 10.8025C27.2596 11.8475 19.7444 15.5975 14.0224 21.4423C8.21499 27.3741 4.60671 35.1113 3.79785 43.3149C6.23234 41.9237 9.77743 40.4739 13.9829 40.4724C17.4079 40.4724 20.7571 41.4415 23.9499 43.356C24.0668 37.1492 25.3638 23.4296 33.819 12.5811L33.9027 12.4736L33.9075 12.4752Z" fill="#33B899"/>
<path id="Vector_3" d="M44.6973 10.8037C44.8584 10.9855 44.999 11.1484 45.1333 11.3065C45.1886 11.3697 45.2423 11.4361 45.2976 11.5009L45.3703 11.5879C45.6215 11.8899 45.8631 12.1871 46.089 12.4732L46.1238 12.5175C46.138 12.5365 46.1538 12.557 46.168 12.576C54.6248 23.4245 55.9249 37.1488 56.0434 43.3588C64.4543 38.3108 71.9822 40.9036 76.1971 43.3161C75.3882 35.1125 71.7799 27.3753 65.9725 21.4436C60.2505 15.5988 52.7369 11.8487 44.6988 10.8037H44.6973Z" fill="#33B899"/>
<path id="Vector_4" d="M41.8144 6.91922V2.02929C41.8144 1.02855 41.0008 0.214355 40.0008 0.214355C39.0008 0.214355 38.1856 1.02855 38.1856 2.02929V6.91764C27.9753 7.37612 18.438 11.6779 11.2862 19.061C4.00801 26.5721 0 36.4578 0 46.8953C0 47.6162 0.42657 48.2692 1.08851 48.5601C1.31916 48.6597 1.56401 48.7118 1.81362 48.7118C2.27334 48.7118 2.71096 48.5395 3.04746 48.2265C3.45821 47.8439 13.242 38.9826 24.6909 48.304C24.7398 48.3451 24.7872 48.3703 24.8236 48.3893L24.8315 48.3956C24.8615 48.4194 24.9057 48.4557 24.9657 48.4873C25.0084 48.5111 25.0463 48.5237 25.0732 48.5332C25.1474 48.5664 25.2153 48.5901 25.2849 48.6138C25.3512 48.6344 25.4397 48.6612 25.5361 48.6755C25.6119 48.6881 25.6877 48.696 25.7762 48.7008C25.8568 48.7024 25.9405 48.7008 26.0369 48.6897C26.1048 48.6818 26.1853 48.6723 26.2675 48.6502C26.3512 48.6296 26.435 48.5996 26.5266 48.5616C26.5582 48.5522 26.6103 48.5379 26.6719 48.5063C26.7004 48.4921 26.7225 48.4763 26.7414 48.4636C26.762 48.4542 26.7872 48.4415 26.8141 48.4241C27.0685 48.2629 31.6594 45.4155 38.184 44.9128V78.3264C38.184 84.5964 43.2805 89.6966 49.5444 89.6966C55.8084 89.6966 60.9064 84.5964 60.9064 78.3264C60.9064 77.3256 60.0928 76.5114 59.0928 76.5114C58.0928 76.5114 57.2792 77.3256 57.2792 78.3264C57.2792 82.5934 53.8099 86.0651 49.546 86.0651C45.2821 86.0651 41.8144 82.5934 41.8144 78.3264V44.8891C45.7861 45.1499 49.6297 46.353 53.2507 48.4668L53.2775 48.481L53.3312 48.511C53.3849 48.5379 53.4339 48.5522 53.4718 48.5632C53.5587 48.5996 53.6551 48.6375 53.7704 48.6644C53.8289 48.677 53.8857 48.6834 53.9442 48.6897L53.99 48.696C54.05 48.7071 54.1559 48.7229 54.2759 48.7039C54.3312 48.6992 54.385 48.6929 54.4387 48.6834L54.4829 48.6771C54.5714 48.6597 54.6551 48.6391 54.7499 48.6091C54.8147 48.587 54.8778 48.5601 54.941 48.5316C54.9695 48.5221 55.0153 48.5047 55.0674 48.4747C55.1227 48.4431 55.1654 48.4083 55.1922 48.383C55.2191 48.3688 55.2633 48.345 55.3076 48.3087C66.6933 39.0443 76.5402 47.8534 76.9525 48.2328C77.2906 48.5458 77.7282 48.7166 78.1864 48.7166C78.4392 48.7166 78.6825 48.666 78.9131 48.5648C79.5735 48.2755 80 47.621 80 46.9016C80 36.4642 75.992 26.5784 68.7139 19.0657C61.5605 11.6826 52.0216 7.38087 41.8128 6.92239L41.8144 6.91922ZM23.9547 43.3571C20.7619 41.4442 17.4127 40.4735 13.9876 40.4735C9.78219 40.4735 6.2371 41.9232 3.80261 43.316C4.6099 35.1109 8.21976 27.3752 14.0271 21.4435C19.7492 15.5987 27.2628 11.8486 35.3024 10.8036C35.1587 10.9649 35.0133 11.1325 34.8711 11.3016C34.8222 11.357 34.7764 11.4139 34.729 11.4708L34.6263 11.5941C34.3862 11.8818 34.146 12.1775 33.9122 12.4763L33.8285 12.5838C25.3733 23.4323 24.0763 37.1519 23.9594 43.3587L23.9547 43.3571ZM52.3486 43.9057C48.4591 42.1082 44.3705 41.1991 40.1809 41.1991C34.7116 41.1991 30.1902 42.7769 27.6483 43.9105V42.3469C27.9089 36.3709 29.3434 24.9769 36.0133 15.7425L36.1192 15.5987C36.2361 15.4374 36.3546 15.2761 36.4778 15.1149C36.7259 14.7876 36.9581 14.492 37.1872 14.209C37.5126 13.8106 37.8522 13.4122 38.1998 13.0233C38.2551 12.9616 38.3088 12.9 38.3625 12.8383C38.4542 12.734 38.5458 12.6281 38.6406 12.5269C39.0608 12.0763 39.5158 11.6163 40.0008 11.153C40.489 11.6194 40.9471 12.0826 41.3642 12.5316C41.4621 12.6375 41.5569 12.745 41.6517 12.8541L41.797 13.0185C42.1478 13.4106 42.489 13.8106 42.8128 14.209C43.0451 14.4952 43.2836 14.8003 43.5238 15.1149C43.6549 15.2888 43.7829 15.4643 43.9093 15.6382L43.9835 15.7409C50.644 24.9627 52.0848 36.3408 52.3486 42.3105V43.9057ZM56.0422 43.3571C55.9237 37.1471 54.6235 23.4228 46.1668 12.5743C46.151 12.5553 46.1368 12.5364 46.1226 12.5158L46.0878 12.4715C45.8619 12.1854 45.6218 11.8882 45.369 11.5862L45.2963 11.4993C45.241 11.4344 45.1873 11.368 45.132 11.3048C44.9977 11.1467 44.8556 10.9823 44.696 10.802C52.7341 11.847 60.2476 15.5971 65.9697 21.4419C71.7771 27.3736 75.3854 35.1093 76.1943 43.3145C71.9793 40.9019 64.4515 38.3076 56.0406 43.3571H56.0422Z" fill="#4F6CC4"/>
</g>
</svg>
