<svg width="74" height="75" viewBox="0 0 74 75" fill="none" xmlns="http://www.w3.org/2000/svg">
<g id="Layer_1" clip-path="url(#clip0_2684_2255)">
<path id="Vector" d="M65.5291 18.3842C64.9012 19.261 64.1712 20.0635 63.3557 20.7731C63.3445 20.7843 63.3315 20.7935 63.3167 20.8028C56.5678 25.1943 49.6777 29.584 42.8415 33.8492C42.8341 33.8548 42.8248 33.8585 42.8174 33.8622C41.2885 34.6517 40.0662 35.8778 39.2859 37.4122C38.5039 38.9448 38.2289 40.6557 38.489 42.3554C38.4909 42.374 38.4927 42.3926 38.4927 42.4112C38.4871 42.9945 38.3051 43.5536 37.9651 44.0273C37.6066 44.5939 37.1831 45.1364 36.7335 45.7104C36.6202 45.8553 36.505 46.002 36.3861 46.1562L38.0302 46.6336C38.1583 46.6708 38.2531 46.7785 38.2735 46.9086C38.2958 47.0405 38.2382 47.1723 38.1305 47.2467L38.0989 47.269C38.3088 47.6906 38.5187 48.1235 38.6989 48.5563C38.8159 48.8312 38.9014 49.121 38.9534 49.4146C38.9571 49.435 38.959 49.4554 38.959 49.4758C38.959 49.9458 38.959 50.4307 39.076 50.8784C39.0797 50.8895 39.0816 50.9007 39.0834 50.9118C39.3268 52.489 39.6203 52.7583 41.3145 52.9404H43.4248C44.0601 52.9404 44.3072 52.9404 44.753 53.0481C45.3196 53.0816 45.8676 53.3008 46.2986 53.6667C46.7407 54.042 47.0491 54.5603 47.1661 55.1287C47.2962 55.6897 47.2237 56.2898 46.9562 56.8099C46.6924 57.3226 46.2577 57.7276 45.7302 57.9542C45.2732 58.2292 44.8032 58.4818 44.3481 58.727C43.683 59.0855 42.9938 59.4552 42.3641 59.8881C41.5727 60.4472 40.8835 61.1364 40.3225 61.9315C40.3151 61.9408 40.3076 61.9501 40.3002 61.9593C40.1256 62.16 40.0011 62.4033 39.9435 62.6615C39.8841 62.9216 39.8915 63.1928 39.9621 63.4492C40.0327 63.7055 40.1683 63.9433 40.3522 64.1347C40.5361 64.326 40.7683 64.4709 41.021 64.5526C42.026 64.8963 43.057 65.1787 44.0917 65.3942C44.2125 65.4202 44.3109 65.5075 44.3499 65.6264C44.3871 65.7453 44.3592 65.8734 44.2756 65.9645C43.2855 67.0401 41.9405 67.7255 40.4897 67.8946C40.2538 67.9224 40.0179 67.9354 39.7819 67.9354C38.5689 67.9354 37.3763 67.5732 36.362 66.8896C36.3508 66.8822 36.3397 66.8729 36.3285 66.8654C35.9124 66.5069 35.5799 66.0499 35.3663 65.5446C35.1508 65.0393 35.0542 64.4839 35.082 63.934C35.1118 63.386 35.2678 62.8417 35.5353 62.3625C35.8028 61.8832 36.1836 61.4633 36.6332 61.1513C37.5304 60.5104 38.4797 59.9159 39.4531 59.3865C39.6277 59.2843 39.8172 59.1821 40.0086 59.08C40.3355 58.9035 40.6755 58.7214 40.9746 58.5134C41.3647 58.2496 41.6526 57.8781 41.8124 57.4397C41.9721 57.0012 41.9888 56.5313 41.8607 56.0817C41.7269 55.6433 41.4427 55.2513 41.0656 54.9801C40.6866 54.7107 40.2222 54.5733 39.7578 54.5863C39.7429 54.5863 39.7281 54.5863 39.7132 54.5863C39.2079 54.538 38.6915 54.512 38.1918 54.486C37.5862 54.4544 36.9583 54.4228 36.3378 54.3522C36.0703 54.3429 35.8121 54.2779 35.5725 54.1609C35.3273 54.0401 35.1155 53.8729 34.9409 53.663C34.7681 53.4531 34.6436 53.2116 34.573 52.9478C34.508 52.7026 34.4913 52.4537 34.5247 52.2029C34.4114 51.5156 34.2015 50.8505 33.9024 50.2208C33.895 50.2059 33.8894 50.1892 33.8838 50.1725L33.6386 49.3532H33.555C33.4417 49.3532 33.3358 49.2975 33.2727 49.2065C33.2077 49.1136 33.1928 48.9966 33.2318 48.8907L33.6814 47.6758L31.8961 47.1055C31.7903 47.072 31.7067 46.9884 31.6732 46.8826C31.6398 46.7767 31.6584 46.6615 31.7234 46.5723C32.1339 46.0187 32.5779 45.48 33.0442 44.971C33.0516 44.9617 33.059 44.9543 33.0683 44.9469C33.3618 44.6831 33.5978 44.3673 33.765 44.0088C33.9321 43.6502 34.025 43.2675 34.0399 42.8719C34.1625 41.4136 34.3947 40.0036 34.7049 38.3317C34.9873 36.7936 35.6208 35.3093 36.5347 34.0405C37.4468 32.7736 38.6525 31.7036 40.0179 30.9475C43.6347 28.7053 47.298 26.4111 50.8406 24.1949C53.7125 22.3967 56.6829 20.5372 59.6088 18.7185C59.6181 18.713 59.6292 18.7074 59.6385 18.7018C61.1599 17.9569 62.4306 16.7754 63.2907 15.3264C62.7371 14.6502 62.1575 13.9964 61.5537 13.3647C61.4516 13.597 61.3271 13.818 61.1711 14.0242C60.1865 15.2428 59.0199 16.2627 57.6917 17.0689C53.9076 19.482 50.0121 21.8933 46.2447 24.2228C43.9505 25.642 41.5783 27.1115 39.2692 28.5549C39.0463 28.6979 38.8197 28.8558 38.5986 29.01C38.1806 29.2998 37.7496 29.6007 37.2889 29.8441C36.3007 30.3939 35.4387 31.1277 34.7328 32.0213C34.0269 32.9148 33.5123 33.9216 33.2039 35.0177C33.2021 35.0251 33.2002 35.0307 33.1984 35.0381C33.059 35.4338 32.9179 35.8313 32.7767 36.227C32.2974 37.5701 31.7996 38.9578 31.441 40.3306C31.0751 41.8316 30.1555 43.1245 28.8533 43.9679C27.865 44.6069 26.73 44.9394 25.5745 44.9394C25.2141 44.9394 24.8519 44.9079 24.4915 44.8428C23.3639 44.7778 22.2252 44.6645 21.1254 44.5549C20.0275 44.4453 18.8944 44.3338 17.7779 44.2688C17.7779 44.2688 15.558 44.018 13.9883 45.1085C14.2335 45.2014 14.4731 45.3054 14.7091 45.4261C21.5713 48.6975 28.5115 52.136 35.2232 55.4594L35.2399 55.4668C35.6431 55.6804 36.0127 55.9368 36.349 56.234C36.6666 56.4811 36.9286 56.8006 37.1069 57.161C37.2871 57.527 37.3818 57.9338 37.3818 58.3388C37.3818 58.7437 37.2871 59.1524 37.1069 59.5165C36.9304 59.875 36.6703 60.1946 36.3545 60.4398C36.022 60.7574 35.6393 61.0064 35.2697 61.2479C34.9873 61.4318 34.7198 61.6064 34.4764 61.807C33.5848 62.4851 32.747 63.2244 31.9723 64.0158C31.5841 64.4486 31.3333 64.9948 31.2571 65.5855C31.1809 66.1762 31.2868 66.7688 31.5618 67.2964C31.5655 67.3057 31.5711 67.315 31.5748 67.3243C31.794 67.8537 32.1618 68.2977 32.6411 68.6098C33.1204 68.9219 33.6758 69.0779 34.248 69.0686C34.2628 69.0686 34.2758 69.0686 34.2907 69.0686L35.5465 69.1968C35.6709 69.2098 35.7805 69.2897 35.8288 69.4049C35.8771 69.52 35.8604 69.6538 35.7824 69.7522C35.578 70.0105 35.3477 70.2482 35.0969 70.4619C35.0839 70.473 35.0709 70.4823 35.056 70.4916C34.9167 70.5789 34.7755 70.6588 34.6325 70.7349C35.4164 70.7888 36.2059 70.8185 37.0029 70.8185C55.7671 70.8185 70.9795 55.6061 70.9795 36.8419C70.9795 30.0373 68.977 23.6989 65.5328 18.3842H65.5291ZM60.1605 55.1807C59.7871 55.2402 59.41 55.2699 59.0366 55.2699C57.6285 55.2699 56.2501 54.8538 55.0649 54.0568C53.9095 53.2469 52.6388 52.658 51.279 52.3014C50.0622 52.1695 48.8287 52.1695 47.612 52.3032C47.6027 52.3032 47.5934 52.3032 47.5841 52.3032C46.2429 52.3385 44.8905 52.2884 43.5604 52.1527C42.8248 52.0543 41.9665 51.6326 41.9963 50.1855C41.9963 50.1 41.9981 50.0016 42.0018 49.8994C42.0241 49.1117 41.9907 48.5303 41.3777 48.2238C41.2365 48.1532 41.1603 47.9953 41.1956 47.8411C41.3572 47.1148 41.0451 46.968 40.3244 46.7079C39.9993 46.5909 39.6612 46.4683 39.3937 46.2417C39.2971 46.1599 39.2544 46.0317 39.2804 45.9091C39.3305 45.6676 39.429 45.4466 39.572 45.246C39.585 45.2292 39.598 45.2125 39.6129 45.1977C40.1572 44.6775 40.5714 44.0236 40.8074 43.3084C41.0451 42.5932 41.1046 41.8223 40.9783 41.0792C40.9764 41.0644 40.9746 41.0495 40.9746 41.0328C40.9411 40.0092 41.1882 38.9949 41.6935 38.1032C42.1969 37.2116 42.9362 36.4759 43.8316 35.9762C46.0404 34.5978 48.5148 33.1266 51.383 31.4881C51.3886 31.4844 51.3942 31.4825 51.3998 31.4788C54.8216 29.7679 58.026 27.6372 60.9258 25.1423C61.002 25.0773 61.1005 25.0476 61.2008 25.0624C61.2992 25.0773 61.3865 25.133 61.4404 25.2166C61.9271 25.9727 62.1259 26.8774 62.0014 27.7672C61.877 28.657 61.4348 29.4744 60.7605 30.0651C60.2274 30.55 59.6329 30.9791 59.0013 31.3395C55.2953 33.5743 52.2246 35.4003 49.3452 37.0834C48.4814 37.5924 47.6789 38.1032 46.9637 38.6011C46.9562 38.6067 46.9469 38.6122 46.9376 38.6178C46.2652 39.0023 45.732 39.5764 45.3995 40.2786C45.067 40.9789 44.9574 41.7535 45.0837 42.5189C45.2732 43.6409 44.8775 44.5642 43.8762 45.3258C44.1567 45.4503 44.3834 45.5543 44.6026 45.6844C44.9704 45.9054 45.2602 46.0782 45.2602 46.4274C45.2676 46.8974 45.3921 47.3674 45.6206 47.7835C45.8491 48.1996 46.1779 48.5582 46.5735 48.8201C46.5884 48.8294 46.6014 48.8405 46.6144 48.8517C46.7259 48.952 46.802 49.0895 46.828 49.2381C46.8318 49.2585 46.8336 49.2789 46.8336 49.2994C46.8336 49.6932 46.9116 49.9607 47.0677 50.0982C47.3315 50.3304 47.8943 50.2579 48.4405 50.1873L48.5761 50.1706C49.4455 50.0629 50.5601 49.8771 51.892 49.6207C53.5082 49.2808 55.1931 49.3662 56.7665 49.8641C56.7814 49.8697 56.7981 49.8752 56.813 49.8827C59.2075 51.0419 61.7674 51.7459 64.4164 51.9781C64.5427 51.9893 64.6523 52.0673 64.7025 52.1843C64.7526 52.2995 64.7359 52.4351 64.6579 52.5336C63.5433 53.9565 61.9457 54.8947 60.1605 55.1789V55.1807Z" fill="white"/>
<path id="Vector_2" d="M26.6279 66.5161C26.7821 65.8195 27.1164 65.1731 27.5957 64.6455C27.6013 64.6381 27.6087 64.6325 27.6143 64.625C28.5171 63.778 29.5258 63.0479 30.6089 62.4534C31.9817 61.558 32.6244 60.8484 32.6374 60.2242C32.6486 59.6019 32.0374 58.8774 30.7166 57.9449C25.5876 54.5937 20.0889 51.7403 14.3822 49.4721C14.3673 49.4665 14.3543 49.4591 14.3394 49.4517C13.4218 48.9334 12.4483 48.5098 11.4471 48.1884C10.2433 47.9767 9.01352 47.8448 7.79118 47.7928C7.62027 47.7853 7.48095 47.6553 7.46237 47.4844C7.40107 46.9104 7.55711 46.3382 7.90078 45.8738C8.24073 45.415 8.73301 45.101 9.29217 44.9877C10.6427 44.553 12.0601 44.5307 13.3976 44.9078C13.3159 44.2205 13.2713 43.2322 13.3382 42.9034C13.4106 42.543 13.5536 42.2068 13.7617 41.9058C13.9698 41.6049 14.2336 41.3504 14.5438 41.1553C14.854 40.9584 15.1958 40.8302 15.5581 40.7708C16.9885 40.533 18.4504 40.4754 19.8976 40.598C21.1905 40.6761 22.4964 40.8488 23.7578 41.0141C24.2278 41.0755 24.6978 41.1386 25.1659 41.1962C26.7653 41.3913 26.9678 41.2687 27.3449 39.894C27.8428 38.0753 28.441 36.0653 28.9462 34.516C29.3122 33.4646 29.7469 32.4355 30.2429 31.4472C30.9952 29.9202 32.1674 28.6495 33.6294 27.7746L34.9372 26.9386C41.0452 23.0338 47.3631 18.9971 53.6067 15.1796C55.5907 14.0483 57.348 12.5399 58.7692 10.7621C52.8729 5.83559 45.2825 2.8689 36.9992 2.8689C18.2368 2.86333 3.02441 18.0757 3.02441 36.84C3.02441 52.1304 13.1245 65.0597 27.0161 69.3231C26.8954 69.0983 26.7969 68.8642 26.7189 68.6209C26.5053 67.941 26.4737 67.2128 26.6279 66.5161Z" fill="#33B899"/>
<path id="Vector_3" d="M37.0009 0.214355C16.5648 0.214355 0 16.7791 0 37.2153C0 57.6514 16.5648 74.2162 37.0009 74.2162C57.4371 74.2162 74.0019 57.6514 74.0019 37.2153C74.0019 16.7791 57.4352 0.214355 37.0009 0.214355ZM3.02428 36.84C3.02428 18.0758 18.2367 2.86338 37.0009 2.86338C45.2842 2.86338 52.8747 5.83007 58.7709 10.7566C57.3516 12.5344 55.5943 14.0447 53.6084 15.1741C47.3648 18.9916 41.0488 23.0283 34.9389 26.9331L33.6311 27.7691C32.1691 28.6459 30.9988 29.9165 30.2446 31.4417C29.7486 32.4299 29.3139 33.4609 28.948 34.5105C28.4445 36.0598 27.8464 38.0698 27.3467 39.8885C26.9695 41.265 26.7671 41.3857 25.1676 41.1907C24.6976 41.1331 24.2295 41.0718 23.7595 41.0086C22.4982 40.8433 21.1941 40.6705 19.8993 40.5925C18.4522 40.4699 16.9902 40.5294 15.5598 40.7653C15.1975 40.8247 14.8557 40.9529 14.5455 41.1498C14.2353 41.3467 13.9715 41.5994 13.7634 41.9003C13.5554 42.2031 13.4123 42.5375 13.3399 42.8979C13.273 43.2267 13.3157 44.215 13.3993 44.9023C12.0637 44.5252 10.6444 44.5475 9.29389 44.9822C8.73473 45.0955 8.24245 45.4094 7.9025 45.8683C7.55883 46.3327 7.40279 46.9049 7.46409 47.4789C7.48267 47.6479 7.62199 47.7798 7.7929 47.7872C9.01338 47.8374 10.2432 47.9711 11.4488 48.1829C12.4501 48.5024 13.4235 48.9278 14.3412 49.4461C14.3542 49.4536 14.369 49.461 14.3839 49.4666C20.0906 51.7348 25.5893 54.5881 30.7183 57.9394C32.041 58.8701 32.6503 59.5945 32.6391 60.2187C32.628 60.8448 31.9834 61.5525 30.6106 62.4479C29.5275 63.0424 28.5188 63.7743 27.616 64.6195C27.6086 64.6251 27.603 64.6325 27.5974 64.64C27.1182 65.1675 26.7838 65.814 26.6296 66.5106C26.4754 67.2073 26.507 67.9354 26.7206 68.6154C26.7968 68.8587 26.8971 69.0946 27.0178 69.3176C13.1262 65.0524 3.02613 52.123 3.02613 36.8345L3.02428 36.84ZM37.0009 70.8167C36.204 70.8167 35.4145 70.787 34.6306 70.7331C34.7736 70.6569 34.9148 70.5752 35.0541 70.4897C35.069 70.4804 35.082 70.4712 35.095 70.46C35.3457 70.2464 35.578 70.0086 35.7804 69.7504C35.8585 69.6519 35.877 69.5182 35.8269 69.403C35.7786 69.2878 35.669 69.2079 35.5445 69.1949L34.2887 69.0668C34.2739 69.0668 34.2609 69.0649 34.246 69.0668C33.6739 69.0761 33.1184 68.9219 32.6391 68.6079C32.1599 68.2958 31.7902 67.85 31.5728 67.3224C31.5691 67.3131 31.5654 67.3038 31.5598 67.2946C31.2849 66.7651 31.179 66.1744 31.2552 65.5837C31.3295 64.9929 31.5803 64.4468 31.9704 64.0139C32.745 63.2226 33.5847 62.4814 34.4745 61.8052C34.7179 61.6045 34.9854 61.4299 35.2677 61.246C35.6374 61.0045 36.0201 60.7556 36.3526 60.4379C36.6684 60.1927 36.9285 59.8732 37.105 59.5147C37.2852 59.1506 37.3799 58.7419 37.3799 58.3369C37.3799 57.9319 37.2852 57.5233 37.105 57.1592C36.9266 56.7988 36.6647 56.4774 36.347 56.2322C36.0108 55.9368 35.6411 55.6805 35.238 55.465L35.2213 55.4575C28.5096 52.1323 21.5693 48.6956 14.7071 45.4243C14.4712 45.3035 14.2297 45.1995 13.9863 45.1066C15.5561 44.0162 17.776 44.267 17.776 44.267C18.8924 44.3301 20.0275 44.4434 21.1235 44.5531C22.2232 44.6627 23.362 44.776 24.4896 44.841C24.85 44.906 25.2122 44.9376 25.5726 44.9376C26.7281 44.9376 27.8631 44.6051 28.8514 43.966C30.1536 43.1227 31.0731 41.8297 31.4391 40.3287C31.7995 38.9559 32.2955 37.5682 32.7747 36.2252C32.9159 35.8295 33.059 35.4319 33.1964 35.0362C33.1983 35.0288 33.2001 35.0232 33.202 35.0158C33.5104 33.9198 34.025 32.9129 34.7309 32.0194C35.4368 31.1259 36.2987 30.3921 37.287 29.8422C37.7477 29.597 38.1787 29.2979 38.5967 29.0081C38.8159 28.8558 39.0444 28.6979 39.2673 28.553C41.5764 27.1077 43.9486 25.6402 46.2428 24.2209C50.0101 21.8896 53.9057 19.4802 57.6897 17.0671C59.0179 16.2608 60.1864 15.2391 61.1691 14.0224C61.3233 13.8162 61.4496 13.5951 61.5518 13.3629C62.1555 13.9945 62.7351 14.6484 63.2887 15.3246C62.4286 16.7736 61.158 17.9532 59.6365 18.7C59.6254 18.7055 59.6161 18.7111 59.6068 18.7167C56.681 20.5372 53.7106 22.3948 50.8387 24.1931C47.2961 26.4111 43.6328 28.7035 40.0159 30.9457C38.6505 31.7017 37.4449 32.7699 36.5328 34.0387C35.6188 35.3075 34.9854 36.7917 34.703 38.3299C34.3928 40.0018 34.1606 41.4117 34.038 42.87C34.0231 43.2657 33.9321 43.6484 33.763 44.0069C33.5958 44.3654 33.3599 44.6812 33.0664 44.945C33.0571 44.9524 33.0497 44.9599 33.0422 44.9692C32.576 45.48 32.132 46.0187 31.7214 46.5705C31.6546 46.6596 31.636 46.7748 31.6713 46.8807C31.7047 46.9866 31.7883 47.0683 31.8942 47.1036L33.6794 47.6739L33.2299 48.8888C33.1909 48.9947 33.2057 49.1136 33.2707 49.2046C33.3358 49.2975 33.4398 49.3514 33.5531 49.3514H33.6367L33.8819 50.1706C33.8875 50.1873 33.8931 50.2041 33.9005 50.2189C34.1996 50.8487 34.4095 51.5137 34.5228 52.201C34.4894 52.4518 34.5042 52.7008 34.5711 52.946C34.6417 53.2098 34.7662 53.4513 34.9389 53.6612C35.1117 53.8711 35.3253 54.0401 35.5705 54.159C35.812 54.2761 36.0684 54.3411 36.3359 54.3504C36.9582 54.421 37.5842 54.4525 38.1898 54.4841C38.6895 54.5101 39.206 54.5361 39.7113 54.5844C39.7261 54.5844 39.741 54.5844 39.7558 54.5844C40.2203 54.5714 40.6847 54.707 41.0636 54.9783C41.4426 55.2476 41.725 55.6414 41.8587 56.0798C41.9869 56.5294 41.9683 56.9994 41.8104 57.4378C41.6507 57.8762 41.3627 58.2477 40.9726 58.5115C40.6735 58.7196 40.3336 58.9016 40.0066 59.0781C39.8171 59.1803 39.6277 59.2825 39.4512 59.3846C38.4778 59.9122 37.5285 60.5067 36.6313 61.1494C36.1798 61.4615 35.8009 61.8813 35.5334 62.3606C35.2659 62.8399 35.1098 63.3842 35.0801 63.9322C35.0504 64.4802 35.1488 65.0375 35.3643 65.5428C35.5798 66.0481 35.9123 66.5051 36.3266 66.8636C36.3377 66.8729 36.347 66.8803 36.36 66.8877C37.3743 67.5732 38.5669 67.9336 39.78 67.9336C40.0159 67.9336 40.2518 67.9206 40.4878 67.8927C41.9386 67.7237 43.2835 67.0382 44.2737 65.9626C44.3573 65.8716 44.387 65.7415 44.348 65.6245C44.3108 65.5056 44.2124 65.4183 44.0898 65.3923C43.055 65.1768 42.024 64.8945 41.0191 64.5508C40.7664 64.4691 40.5361 64.3242 40.3503 64.1328C40.1664 63.9415 40.0308 63.7037 39.9602 63.4473C39.8896 63.191 39.8822 62.9179 39.9416 62.6597C40.0011 62.3996 40.1237 62.1581 40.2983 61.9575C40.3057 61.9482 40.3131 61.9389 40.3206 61.9296C40.8816 61.1345 41.5708 60.4472 42.3621 59.8862C42.9937 59.4534 43.6811 59.0837 44.3461 58.7252C44.8013 58.4799 45.2712 58.2273 45.7282 57.9524C46.2558 57.7257 46.6905 57.3208 46.9543 56.8081C47.2218 56.2879 47.2942 55.6879 47.1642 55.1269C47.0453 54.5603 46.7369 54.042 46.2967 53.6649C45.8638 53.2971 45.3158 53.0779 44.7511 53.0463C44.3053 52.9385 44.0582 52.9385 43.4229 52.9385H41.3126C39.6184 52.7565 39.3249 52.4871 39.0815 50.91C39.0815 50.8988 39.0778 50.8877 39.0741 50.8765C38.957 50.4288 38.957 49.944 38.957 49.474C38.957 49.4536 38.957 49.4331 38.9515 49.4127C38.8995 49.1173 38.8121 48.8275 38.697 48.5545C38.5168 48.1216 38.3069 47.6906 38.097 47.2671L38.1285 47.2448C38.2381 47.1686 38.2939 47.0367 38.2716 46.9067C38.2493 46.7748 38.1545 46.6689 38.0282 46.6318L36.3842 46.1544C36.5031 46.002 36.6182 45.8534 36.7316 45.7085C37.1811 45.1345 37.6047 44.5921 37.9632 44.0255C38.3032 43.5518 38.4852 42.9926 38.4908 42.4093C38.4908 42.3907 38.4908 42.3722 38.4871 42.3536C38.227 40.652 38.5019 38.9429 39.284 37.4103C40.0661 35.8778 41.2866 34.6498 42.8154 33.8603C42.8228 33.8566 42.8321 33.8511 42.8396 33.8473C49.6758 29.5803 56.5658 25.1906 63.3147 20.801C63.3277 20.7917 63.3407 20.7824 63.3537 20.7713C64.1674 20.0635 64.8993 19.2591 65.5272 18.3823C68.9732 23.6971 70.9739 30.0336 70.9739 36.84C70.9739 55.6043 55.7615 70.8167 36.9972 70.8167H37.0009Z" fill="#4F6CC4"/>
<path id="Vector_4" d="M64.4144 51.98C61.7635 51.7478 59.2055 51.0437 56.8109 49.8845C56.7961 49.8771 56.7812 49.8715 56.7645 49.866C55.1911 49.3662 53.5062 49.2827 51.89 49.6226C50.558 49.879 49.4434 50.0629 48.5741 50.1725L48.4385 50.1892C47.8942 50.2598 47.3294 50.3322 47.0656 50.1C46.9115 49.9644 46.8316 49.6951 46.8316 49.3012C46.8316 49.2808 46.8316 49.2604 46.826 49.2399C46.8 49.0913 46.7238 48.9557 46.6124 48.8535C46.5994 48.8424 46.5864 48.8312 46.5715 48.822C46.1758 48.56 45.8452 48.2015 45.6185 47.7854C45.39 47.3693 45.2656 46.8974 45.2581 46.4293C45.2581 46.0819 44.9683 45.9073 44.6005 45.6862C44.3813 45.5562 44.1547 45.4522 43.8742 45.3277C44.8773 44.566 45.2711 43.6428 45.0817 42.5208C44.9553 41.7554 45.0649 40.9808 45.3975 40.2804C45.73 39.5801 46.2613 39.0061 46.9356 38.6197C46.9449 38.6141 46.9523 38.6085 46.9616 38.603C47.6787 38.1051 48.4793 37.5942 49.3431 37.0852C52.2225 35.4022 55.2932 33.5761 58.9993 31.3413C59.6309 30.981 60.2253 30.5518 60.7585 30.067C61.4347 29.4744 61.8749 28.6589 61.9994 27.7691C62.1239 26.8792 61.9251 25.9727 61.4384 25.2185C61.3845 25.1349 61.2972 25.0792 61.1987 25.0643C61.1003 25.0494 61 25.0792 60.9238 25.1442C58.024 27.639 54.8195 29.7698 51.3977 31.4807C51.3921 31.4844 51.3866 31.4862 51.381 31.49C48.5128 33.1284 46.0384 34.5997 43.8296 35.9781C42.9342 36.4778 42.1948 37.2134 41.6914 38.1051C41.188 38.9968 40.9391 40.0111 40.9725 41.0346C40.9725 41.0495 40.9744 41.0644 40.9762 41.0811C41.1007 41.8241 41.0431 42.5951 40.8053 43.3103C40.5675 44.0255 40.1551 44.6794 39.6108 45.1995C39.596 45.2144 39.5811 45.2292 39.57 45.2478C39.4269 45.4466 39.3285 45.6695 39.2783 45.911C39.2523 46.0355 39.2969 46.1618 39.3916 46.2435C39.6591 46.4702 39.9954 46.5909 40.3223 46.7098C41.0431 46.9699 41.3552 47.1166 41.1936 47.843C41.1601 47.9972 41.2344 48.1551 41.3756 48.2256C41.9886 48.5322 42.0202 49.1136 41.9998 49.9013C41.9961 50.0034 41.9942 50.1019 41.9942 50.1873C41.9645 51.6345 42.8227 52.0543 43.5584 52.1546C44.8866 52.2902 46.2408 52.3404 47.5821 52.3051C47.5914 52.3051 47.6006 52.3051 47.6099 52.3051C48.8267 52.1713 50.0602 52.1695 51.277 52.3032C52.6349 52.6599 53.9074 53.2488 55.0629 54.0587C56.2481 54.8556 57.6265 55.2718 59.0346 55.2718C59.4079 55.2718 59.7832 55.242 60.1584 55.1826C61.9437 54.9002 63.5412 53.9602 64.6558 52.5373C64.7339 52.4388 64.7506 52.3032 64.7004 52.188C64.6503 52.0729 64.5407 51.993 64.4144 51.9818V51.98Z" fill="#4F6CC4"/>
</g>
<defs>
<clipPath id="clip0_2684_2255">
<rect width="74" height="74" fill="white" transform="translate(0 0.214355)"/>
</clipPath>
</defs>
</svg>
