<svg width="100" height="90" viewBox="0 0 100 90" fill="none" xmlns="http://www.w3.org/2000/svg">
<g clip-path="url(#clip0_2808_263)">
<path d="M99.7888 23.7183C71.8475 32.1696 45.3282 44.6885 21.042 60.8399L25.897 65.7774C48.4889 48.8408 73.4362 35.2259 99.9999 25.3679C99.9499 24.8199 99.8721 24.2662 99.7888 23.7183Z" fill="#5CD324"/>
<path d="M93.7231 34.3164C93.7231 32.068 92.2177 31.2375 90.3623 32.4691C88.507 33.7006 87.0016 36.5196 87.0016 38.7737V42.4458C84.4796 44.3044 81.9966 46.2026 79.5413 48.1403V42.4006C79.5413 38.8754 77.1805 37.5761 74.2697 39.5081C71.3589 41.4345 68.998 45.858 68.998 49.3888V56.8854C66.2983 59.2355 63.6431 61.6252 61.0378 64.0714V58.0492C61.0378 51.3886 56.5827 48.9425 51.0834 52.5806C45.584 56.2244 41.1289 64.5741 41.1289 71.2347V81.2792L50.0557 90.3576L72.3588 67.6756L92.1732 47.5245C96.0395 43.5926 98.4836 38.7737 99.528 33.7119C97.5726 35 95.634 36.305 93.7175 37.6325V34.3164H93.7231Z" fill="#5CD324"/>
<path d="M92.1782 8.50474C81.585 -2.26851 64.4091 -2.26851 53.8158 8.50474L50.0607 12.3237L46.3056 8.50474C35.7123 -2.26851 18.5364 -2.26851 7.94316 8.50474C-0.639222 17.2386 -2.26682 30.362 3.06037 40.7623C32.7515 27.0458 64.0536 17.8374 95.9834 13.3745C94.9168 11.6458 93.6559 10.0131 92.1782 8.51039V8.50474Z" fill="#003073"/>
</g>
<defs>
<clipPath id="clip0_2808_263">
<rect width="100" height="89.9315" fill="white" transform="translate(0 0.425781)"/>
</clipPath>
</defs>
</svg>
