<svg width="100" height="89" viewBox="0 0 100 89" fill="none" xmlns="http://www.w3.org/2000/svg">
<g clip-path="url(#clip0_1847_21138)">
<g clip-path="url(#clip1_1847_21138)">
<path d="M92.0673 8.13346C92.0062 8.07207 91.9451 8.02184 91.884 7.96045L83.1738 16.7115L99.4054 33.0192C101.233 24.3184 98.7888 14.8921 92.0617 8.13346H92.0673Z" fill="#FF6969"/>
<path d="M65.6592 34.3085L84.9959 53.7359L92.0674 46.6313C92.7228 45.9728 93.3394 45.2863 93.9172 44.5775L74.6804 25.2505L65.6592 34.314V34.3085Z" fill="#FF6969"/>
<path d="M48.1396 51.9107L67.4764 71.3382L72.2814 66.5106L76.4976 62.2746L57.1609 42.8472L48.1396 51.9107Z" fill="#FF6969"/>
<path d="M39.6433 60.4513L30.668 69.4688L50.0013 88.8928L58.9766 79.8753L39.6433 60.4513Z" fill="#FF6969"/>
<path d="M53.7492 8.13341L49.9996 11.9006L46.25 8.13341C35.6734 -2.4984 18.5142 -2.4984 7.93759 8.13341C-2.64456 18.7652 -2.64456 35.9994 7.93759 46.6312L30.6684 69.4687L39.6452 60.4497L48.1442 51.9108L57.1655 42.8473L65.6645 34.3083L74.6857 25.2448L83.1848 16.7058L91.8949 7.95482C81.3017 -2.4984 64.2813 -2.44259 53.7603 8.12783L53.7492 8.13341ZM36.0011 32.4331L40.2729 45.6322L29.0964 37.4728L17.9198 45.6322L22.1916 32.4331L11.015 24.2737H24.8302L29.1019 11.0746L33.3737 24.2737H47.1888L36.0123 32.4331H36.0011Z" fill="#003073"/>
</g>
</g>
<defs>
<clipPath id="clip0_1847_21138">
<rect width="100" height="88.7324" fill="white" transform="translate(0 0.158203)"/>
</clipPath>
<clipPath id="clip1_1847_21138">
<rect width="100" height="88.7324" fill="white" transform="translate(0 0.158203)"/>
</clipPath>
</defs>
</svg>
