<svg width="100" height="101" viewBox="0 0 100 101" fill="none" xmlns="http://www.w3.org/2000/svg">
<g clip-path="url(#clip0_1847_21149)">
<path d="M49.9878 0.890625C40.095 0.890626 30.4244 3.82451 22.1992 9.3212C13.974 14.8179 7.56374 22.6304 3.77913 31.7707C-0.00547162 40.9109 -0.994357 50.9683 0.937555 60.6706C2.86947 70.3729 7.63539 79.2844 14.6325 86.2778C21.6296 93.2712 30.5436 98.0324 40.2469 99.9592C49.9503 101.886 60.0071 100.892 69.1454 97.1023C78.2836 93.3129 86.0928 86.8985 91.5851 78.6704C97.0775 70.4423 100.006 60.7702 100.001 50.8774C99.994 37.6176 94.7217 24.9034 85.3432 15.5298C75.9646 6.15623 63.2476 0.890623 49.9878 0.890625V0.890625ZM18.7758 53.2539C20.5207 52.9652 22.2946 52.8942 24.057 53.0427C26.2487 53.1747 28.414 53.518 30.5793 53.7821C32.7446 54.0461 33.2199 53.7821 33.7481 51.8544C34.2762 49.9268 35.0156 47.3918 35.7285 45.2001C36.1747 43.9171 36.7039 42.6646 37.3129 41.4504C38.2108 39.6317 39.6134 38.1099 41.353 37.067C49.6181 31.7858 57.8569 26.5045 66.1484 21.4346C69.2928 19.6432 71.9636 17.1264 73.9382 14.0937C74.3735 14.3544 74.7491 14.7039 75.0406 15.1193C75.3321 15.5346 75.5329 16.0067 75.63 16.5048C75.7272 17.0029 75.7184 17.5158 75.6044 18.0103C75.4903 18.5047 75.2735 18.9697 74.968 19.3749C73.791 20.8317 72.3705 22.0735 70.7695 23.0453C63.1909 27.8777 55.4539 32.578 47.9017 37.3046C47.0832 37.8328 46.3174 38.4401 45.4724 38.889C44.1953 39.5997 43.0713 40.5558 42.165 41.7023C41.2586 42.8488 40.5878 44.1631 40.1912 45.5698C39.4254 47.7615 38.5804 49.9532 37.9995 52.1713C37.5709 53.927 36.4869 55.4522 34.9697 56.4342C33.4526 57.4162 31.6172 57.7805 29.84 57.4525C27.0409 57.2941 24.2683 56.898 21.4692 56.7395C19.7792 56.7395 18.0892 56.7395 16.3728 56.7395C16.2929 56.3521 16.2923 55.9526 16.3709 55.5649C16.4495 55.1772 16.6058 54.8095 16.8303 54.4838C17.0548 54.1581 17.3429 53.8813 17.6773 53.6699C18.0116 53.4586 18.3853 53.3171 18.7758 53.2539ZM42.6733 89.3511C40.7915 90.5223 38.5229 90.902 36.3623 90.4073C35.5709 90.2265 34.8406 89.8416 34.2443 89.2908C33.6479 88.74 33.2062 88.0426 32.9631 87.2681C32.7201 86.4935 32.6842 85.6688 32.8589 84.876C33.0337 84.0833 33.4131 83.3501 33.9593 82.7496C35.0585 81.72 36.2827 80.8328 37.6034 80.1089C41.1682 77.7852 41.2474 76.2537 37.7618 73.7979C31.3455 69.6054 24.525 66.0669 17.4027 63.2354C16.2292 62.5725 14.9904 62.0327 13.7058 61.6247C12.1783 61.3549 10.6345 61.1873 9.08474 61.123C9.02076 60.5181 9.186 59.9112 9.5478 59.4223C9.90961 58.9334 10.4416 58.598 11.0388 58.4823C13.1598 57.7936 15.4673 57.9741 17.4555 58.9841C25.9847 63.0506 34.461 67.2492 42.9374 71.4477C43.4025 71.6952 43.8368 71.9965 44.2313 72.3456C44.5818 72.6143 44.8657 72.9601 45.0612 73.3562C45.2566 73.7523 45.3582 74.188 45.3582 74.6297C45.3582 75.0714 45.2566 75.5071 45.0612 75.9032C44.8657 76.2993 44.5818 76.6451 44.2313 76.9138C43.5447 77.574 42.6469 77.9965 41.9076 78.6038C40.7941 79.4504 39.7438 80.377 38.7652 81.3764C38.2147 81.9881 37.864 82.7533 37.7602 83.5697C37.6564 84.3861 37.8043 85.2147 38.1843 85.9447C38.4876 86.6778 39.0055 87.3021 39.6699 87.7356C40.3344 88.1692 41.1144 88.3917 41.9076 88.3741L43.4655 88.5325C43.2294 88.8311 42.9641 89.1053 42.6733 89.3511ZM67.9704 68.9656C66.4976 67.9336 64.8521 67.1735 63.1117 66.7211C61.5584 66.5501 59.9911 66.5501 58.4378 66.7211C56.7896 66.7649 55.1402 66.7032 53.4998 66.5362C52.5228 66.4042 51.9155 65.8496 51.9419 64.5293C51.9419 63.6315 52.1531 62.3112 50.9385 61.7039C51.361 59.8027 49.4333 60.0403 48.5619 59.3009C48.6116 59.063 48.7106 58.8382 48.8524 58.6408C49.5813 57.9435 50.1285 57.0784 50.4461 56.121C50.7637 55.1636 50.8421 54.143 50.6744 53.1483C50.6347 51.9559 50.9242 50.7756 51.5111 49.7369C52.098 48.6981 52.9597 47.8411 54.0016 47.2597C57.0911 45.3321 60.2334 43.4837 63.3757 41.6881C67.6566 39.5481 71.6567 36.8873 75.2849 33.7662C75.8339 34.6178 76.0585 35.6382 75.918 36.6416C75.7774 37.6449 75.2809 38.5644 74.5191 39.2323C73.8729 39.8183 73.1645 40.3319 72.4066 40.7638C68.4193 43.1668 64.4848 45.5169 60.4183 47.8935C59.3884 48.5008 58.385 49.1346 57.4344 49.7947C56.5274 50.3141 55.801 51.0983 55.3526 52.0423C54.9042 52.9863 54.7553 54.0449 54.9258 55.076C55.1898 56.6339 54.3977 57.7166 52.9717 58.5616C53.7111 58.9048 54.1336 59.0633 54.5297 59.3009C54.9258 59.5386 55.137 59.6706 55.137 59.8555C55.1475 60.5164 55.3188 61.1648 55.6363 61.7445C55.9538 62.3243 56.4078 62.8179 56.959 63.1826C57.028 63.2451 57.0745 63.3287 57.0911 63.4203C57.0911 65.3479 58.4642 65.0839 59.7317 64.9254C60.9992 64.767 62.5043 64.5029 63.8775 64.2389C65.8152 63.8311 67.8255 63.9311 69.7132 64.5293C72.7215 65.9843 75.9697 66.8791 79.2986 67.17C77.9862 68.8446 76.0887 69.9605 73.9873 70.2936C71.8859 70.6267 69.7364 70.1522 67.9704 68.9656ZM80.3813 24.7882C79.6177 25.8563 78.7314 26.8312 77.7407 27.6928C69.3259 33.1677 60.8584 38.5633 52.338 43.8798C50.3721 44.894 48.7743 46.4998 47.7699 48.4707C46.7655 50.4416 46.4052 52.6781 46.7399 54.8647C46.7345 55.5004 46.5315 56.1188 46.1589 56.6339C45.5252 57.6374 44.733 58.5616 43.8352 59.7498L46.4758 60.5156L46.1325 60.7533C46.4494 61.387 46.7663 62.0208 47.0303 62.6545C47.1633 62.9683 47.2607 63.296 47.3208 63.6315C47.3208 64.2389 47.3208 64.8726 47.4792 65.48C47.8225 67.6981 48.4035 68.1206 50.648 68.3582C51.5722 68.3582 52.4964 68.3582 53.2886 68.3582C54.0808 68.3582 54.3448 68.3582 54.873 68.4903C55.4999 68.518 56.0997 68.7537 56.5778 69.1601C57.0559 69.5665 57.3852 70.1205 57.5136 70.7348C57.6552 71.3435 57.5764 71.9826 57.2911 72.5387C57.0059 73.0947 56.5326 73.5315 55.9556 73.7715C54.5561 74.6165 53.0774 75.2766 51.7306 76.2008C50.7065 76.9243 49.8135 77.8173 49.09 78.8415C48.8259 79.1443 48.641 79.508 48.5519 79.8998C48.4628 80.2917 48.4724 80.6996 48.5797 81.0868C48.687 81.4741 48.8886 81.8288 49.1667 82.1189C49.4447 82.4091 49.7903 82.6258 50.1727 82.7496C51.4345 83.1817 52.7221 83.5345 54.028 83.8058C52.8681 85.0652 51.295 85.867 49.5944 86.0657C47.8938 86.2643 46.1784 85.8466 44.7594 84.8885C44.2905 84.4827 43.9206 83.9751 43.6779 83.4045C43.4353 82.8338 43.3264 82.2152 43.3595 81.596C43.3926 80.9768 43.5669 80.3734 43.8691 79.8319C44.1712 79.2904 44.5932 78.8252 45.1027 78.4718C46.2101 77.6795 47.3654 76.9564 48.5619 76.3065C49.1956 75.9368 49.8822 75.6199 50.4896 75.1974C51.0402 74.8232 51.459 74.2851 51.6865 73.6594C51.9141 73.0337 51.9387 72.3523 51.757 71.7118C51.5598 71.0669 51.1553 70.5052 50.6062 70.1137C50.0572 69.7222 49.3943 69.5228 48.7203 69.5465C47.3208 69.4145 45.9213 69.4145 44.5218 69.256C44.2463 69.2485 43.9757 69.1819 43.7281 69.0609C43.4805 68.9399 43.2618 68.7672 43.0866 68.5545C42.9115 68.3418 42.7839 68.094 42.7126 67.8279C42.6413 67.5617 42.6279 67.2833 42.6733 67.0115C42.5284 66.0966 42.2527 65.2073 41.8547 64.3709L41.4587 63.0506H41.0362L41.7491 61.123L39.1085 60.278C39.6115 59.5994 40.1491 58.9472 40.7193 58.3239C41.1255 57.9591 41.454 57.5163 41.6854 57.0218C41.9168 56.5273 42.0462 55.9912 42.066 55.4456C42.2244 53.5708 42.5413 51.7224 42.8846 49.874C43.2271 48.0144 43.978 46.2541 45.083 44.7198C46.188 43.1856 47.6197 41.9156 49.2749 41.0015C57.408 35.9579 65.4882 30.8616 73.5949 25.818C75.933 24.6723 77.8001 22.7493 78.8761 20.3783C79.5363 21.4874 80.038 22.3324 80.5133 23.1774L80.3813 24.7882Z" fill="#003073"/>
</g>
<defs>
<clipPath id="clip0_1847_21149">
<rect width="100" height="99.9999" fill="white" transform="translate(0 0.890625)"/>
</clipPath>
</defs>
</svg>
