<svg width="80" height="74" viewBox="0 0 80 74" fill="none" xmlns="http://www.w3.org/2000/svg">
<g id="Group 432">
<path id="Vector" d="M59.3049 9.41622H8.40892C8.3061 9.40936 8.20329 9.44023 8.11761 9.50197L4.26712 12.2629C4.14717 12.3486 4.0752 12.4875 4.0752 12.6367C4.0752 12.7859 4.14717 12.9231 4.26712 13.0106L8.11761 15.7715C8.19472 15.8281 8.28897 15.8572 8.38493 15.8572H59.3066C59.5603 15.8572 59.7659 15.6514 59.7659 15.3976V9.87753C59.7659 9.62373 59.5603 9.41794 59.3066 9.41794L59.3049 9.41622Z" fill="#33B899"/>
<path id="Vector_2" d="M11.0254 26.4381V59.5623C11.0254 59.8161 11.231 60.0219 11.4846 60.0219H51.9465C52.2001 60.0219 52.4057 59.8161 52.4057 59.5623V26.4381C52.4057 26.1843 52.2001 25.9785 51.9465 25.9785H11.4846C11.231 25.9785 11.0254 26.1843 11.0254 26.4381ZM19.2987 40.2358C19.2953 39.7951 19.5043 39.3767 19.8591 39.1143C19.8625 39.1109 19.8659 39.1092 19.8693 39.1057L30.8964 30.8298C31.0729 30.6978 31.2803 30.6086 31.4962 30.5726C31.8526 30.5177 32.2228 30.6086 32.5141 30.8213C32.5192 30.8247 32.5244 30.8281 32.5278 30.8333L43.5652 39.116C43.9199 39.3784 44.129 39.7968 44.1255 40.241V54.0422C44.1255 54.8036 43.5052 55.4243 42.7444 55.4243H35.3878C34.627 55.4243 34.0066 54.8036 34.0066 54.0422V47.6012C34.0066 47.3474 33.801 47.1416 33.5474 47.1416H29.8683C29.6147 47.1416 29.409 47.3474 29.409 47.6012V54.0422C29.409 54.8036 28.7887 55.4243 28.0279 55.4243H20.6713C19.9105 55.4243 19.2901 54.8036 19.2901 54.0422V40.2358H19.2987Z" fill="white"/>
<path id="Vector_3" d="M22.52 52.6599H26.1974C26.4511 52.6599 26.6567 52.4541 26.6567 52.2003V45.7593C26.6567 44.9979 27.2753 44.3789 28.0362 44.3789H35.3927C36.1535 44.3789 36.7739 44.9979 36.7739 45.7593V52.2003C36.7739 52.4541 36.9795 52.6599 37.2331 52.6599H40.9122C41.1659 52.6599 41.3715 52.4541 41.3715 52.2003V41.1584C41.3715 41.0143 41.3029 40.8771 41.1881 40.7914L32.0186 33.9097C31.8592 33.7708 31.6193 33.757 31.4428 33.8891L22.2459 40.7897C22.131 40.8754 22.0625 41.0126 22.0625 41.1567V52.1986C22.0625 52.4524 22.2681 52.6582 22.5217 52.6582L22.52 52.6599Z" fill="#33B899"/>
<path id="Vector_4" d="M68.5015 2.9751H62.9837C62.73 2.9751 62.5244 3.18087 62.5244 3.43467V7.88302C62.5261 7.92761 62.5261 7.97048 62.5244 8.03565V17.2547C62.5261 17.2907 62.5261 17.3267 62.5244 17.3799V70.3862C62.5244 70.64 62.73 70.8458 62.9837 70.8458H68.5015C68.7551 70.8458 68.9607 70.64 68.9607 70.3862V17.4382C68.9607 17.4296 68.9607 17.4211 68.9607 17.4125C68.9573 17.3627 68.9573 17.313 68.9607 17.2633C68.9607 17.2547 68.9607 17.2461 68.9607 17.2376V3.43467C68.9607 3.18087 68.7551 2.9751 68.5015 2.9751Z" fill="#33B899"/>
<path id="Vector_5" d="M76.7766 9.41626H72.179C71.9253 9.41626 71.7197 9.62203 71.7197 9.87585V15.396C71.7197 15.6498 71.9253 15.8556 72.179 15.8556H76.7766C77.0302 15.8556 77.2358 15.6498 77.2358 15.396V9.87585C77.2358 9.62203 77.0302 9.41626 76.7766 9.41626Z" fill="#33B899"/>
<path id="Vector_6" d="M20.6803 55.4242H28.0368C28.7976 55.4242 29.418 54.8034 29.418 54.042V47.601C29.418 47.3472 29.6236 47.1414 29.8772 47.1414H33.5563C33.81 47.1414 34.0156 47.3472 34.0156 47.601V54.042C34.0156 54.8034 34.6342 55.4242 35.3968 55.4242H42.7533C43.5141 55.4242 44.1345 54.8034 44.1345 54.042V40.2409C44.1379 39.7967 43.9288 39.3766 43.5741 39.1159L32.5367 30.8331C32.5367 30.8331 32.5265 30.8263 32.523 30.8212C32.2317 30.6102 31.8616 30.5193 31.5052 30.5725C31.2892 30.6085 31.0802 30.6977 30.9054 30.8297L19.8783 39.1056C19.8783 39.1056 19.8714 39.1108 19.868 39.1142C19.5133 39.3766 19.3042 39.795 19.3077 40.2357V54.042C19.3077 54.8034 19.9263 55.4242 20.6888 55.4242H20.6803ZM22.0614 41.16C22.0614 41.016 22.13 40.8788 22.2448 40.7931L31.4417 33.8924C31.6182 33.7604 31.8582 33.7741 32.0175 33.913L41.1871 40.7948C41.3019 40.8805 41.3704 41.0177 41.3704 41.1617V52.2037C41.3704 52.4575 41.1648 52.6633 40.9112 52.6633H37.232C36.9784 52.6633 36.7728 52.4575 36.7728 52.2037V45.7627C36.7728 45.0013 36.1542 44.3822 35.3916 44.3822H28.0351C27.2742 44.3822 26.6556 45.0013 26.6556 45.7627V52.2037C26.6556 52.4575 26.45 52.6633 26.1964 52.6633H22.519C22.2654 52.6633 22.0597 52.4575 22.0597 52.2037V41.1617L22.0614 41.16Z" fill="#4F6CC4"/>
<path id="Vector_7" d="M78.6171 6.65535H72.1808C71.9272 6.65535 71.7215 6.44958 71.7215 6.19578V1.5948C71.7215 0.833407 71.1012 0.214355 70.3404 0.214355H61.1434C61.1434 0.214355 61.1263 0.214355 61.1194 0.214355C61.08 0.214355 61.0423 0.214355 61.0029 0.214355C60.2917 0.28638 59.7605 0.877993 59.764 1.5948V6.19748C59.764 6.45128 59.5583 6.65707 59.3047 6.65707H7.80722C7.75067 6.65535 7.70954 6.65364 7.67013 6.65707C7.43365 6.68451 7.20745 6.77368 7.01553 6.9143L0.57406 11.5187C0.57406 11.5187 0.565492 11.5238 0.562065 11.5273C0.209061 11.7862 0 12.2012 0 12.6402C0 13.0792 0.215915 13.5028 0.575774 13.7635L6.98811 18.3473C6.98811 18.3473 7.00525 18.3575 7.01382 18.3644C7.24687 18.5325 7.52276 18.6216 7.81065 18.6234H17.0042C17.2578 18.6234 17.4634 18.8291 17.4634 19.0829V22.763C17.4634 23.0168 17.2578 23.2226 17.0042 23.2226H9.64764C9.58938 23.2209 9.54825 23.2209 9.50712 23.2226C8.79597 23.2963 8.26475 23.888 8.26818 24.6031V61.4108C8.26818 62.1722 8.88851 62.7912 9.64935 62.7912H53.7903C54.5511 62.7912 55.1715 62.1722 55.1715 61.4108V24.6048C55.1715 23.8434 54.5511 23.2243 53.7903 23.2243H46.4338C46.1801 23.2243 45.9745 23.0185 45.9745 22.7647V19.0846C45.9745 18.8308 46.1801 18.6251 46.4338 18.6251H59.3081C59.5617 18.6251 59.7674 18.8308 59.7674 19.0846V72.2333C59.7674 72.9947 60.386 73.6137 61.1485 73.6137H70.3438C71.1046 73.6137 71.7233 72.9947 71.725 72.2333V19.0846C71.725 18.8308 71.9306 18.6251 72.1842 18.6251H78.6205C79.3814 18.6251 80 18.006 80 17.2446V8.04267C80 7.28127 79.3814 6.66222 78.6205 6.66222L78.6171 6.65535ZM51.9482 25.9801C52.2018 25.9801 52.4074 26.1859 52.4074 26.4397V59.5639C52.4074 59.8177 52.2018 60.0234 51.9482 60.0234H11.4846C11.231 60.0234 11.0254 59.8177 11.0254 59.5639V26.4397C11.0254 26.1859 11.231 25.9801 11.4846 25.9801H51.9465H51.9482ZM20.2241 22.7579V19.0778C20.2241 18.824 20.4297 18.6182 20.6833 18.6182H42.7529C43.0065 18.6182 43.2122 18.824 43.2122 19.0778V22.7579C43.2122 23.0117 43.0065 23.2174 42.7529 23.2174H20.6816C20.428 23.2174 20.2223 23.0117 20.2223 22.7579H20.2241ZM59.764 15.396C59.764 15.6498 59.5583 15.8556 59.3047 15.8556H8.38299C8.28703 15.8556 8.1945 15.8247 8.11567 15.7698L4.26518 13.0089C4.14523 12.9232 4.07326 12.7843 4.07326 12.6351C4.07326 12.4859 4.14523 12.3487 4.26518 12.2612L8.11567 9.5003C8.20135 9.43856 8.30417 9.40769 8.40698 9.41455H59.303C59.5566 9.41455 59.7622 9.62035 59.7622 9.87414V15.3943L59.764 15.396ZM68.9609 17.236C68.9609 17.2446 68.9609 17.2532 68.9609 17.2617C68.9575 17.3115 68.9575 17.3612 68.9609 17.4109C68.9609 17.4195 68.9609 17.4281 68.9609 17.4367V70.3846C68.9609 70.6384 68.7553 70.8442 68.5017 70.8442H62.9838C62.7302 70.8442 62.5246 70.6384 62.5246 70.3846V17.3784C62.5263 17.3235 62.5263 17.2892 62.5246 17.2532V8.0341C62.5263 7.96894 62.5263 7.92607 62.5246 7.88148V3.43313C62.5246 3.17933 62.7302 2.97356 62.9821 2.97356H68.4999C68.7536 2.97356 68.9592 3.17933 68.9592 3.43313V17.236H68.9609ZM77.2359 15.396C77.2359 15.6498 77.0303 15.8556 76.7767 15.8556H72.1791C71.9255 15.8556 71.7198 15.6498 71.7198 15.396V9.87586C71.7198 9.62206 71.9255 9.41627 72.1791 9.41627H76.7767C77.0303 9.41627 77.2359 9.62206 77.2359 9.87586V15.396Z" fill="#4F6CC4"/>
</g>
</svg>
