<svg width="53" height="82" viewBox="0 0 53 82" fill="none" xmlns="http://www.w3.org/2000/svg">
<g id="Layer_1" clip-path="url(#clip0_2684_1194)">
<path id="Vector" d="M14.6163 3.06958H4.50753C3.60415 3.06958 2.86914 3.80112 2.86914 4.70025V24.5905C2.86914 25.1577 3.17189 25.6927 3.66081 25.9859L14.6147 32.5634V3.06958H14.6163Z" fill="#33B899"/>
<path id="Vector_2" d="M23.9278 37.3055C24.4119 36.3307 25.4092 35.7135 26.5004 35.7135C27.5916 35.7135 28.5905 36.3307 29.0729 37.3055L29.3967 37.9581L35.5164 34.2843V3.06958H17.4844V34.2843L23.6041 37.9581L23.9278 37.3055Z" fill="white"/>
<path id="Vector_3" d="M48.4945 3.06958H38.3857V32.5618L49.3396 25.9843C49.8286 25.6911 50.1313 25.1561 50.1313 24.5889V4.70025C50.1313 3.80112 49.3963 3.06958 48.4929 3.06958H48.4945Z" fill="#33B899"/>
<path id="Vector_4" d="M30.3976 46.4273L28.1796 41.9543L27.5418 40.67L26.899 39.3729L26.5008 38.5688L26.1009 39.3729H26.1025L25.4582 40.67L24.8219 41.9543L21.6293 48.3931L20.0055 51.6674L5.4834 53.7669L8.95607 57.1362L15.9921 63.9618L13.5102 78.3591L26.5008 71.5609L39.4897 78.3591L37.0095 63.9618L43.2927 57.8661L47.5182 53.7669L32.9944 51.6674L30.3976 46.4273Z" fill="#33B899"/>
<path id="Vector_5" d="M48.4944 0.214355H4.50719C2.02209 0.214355 0 2.22691 0 4.7003V24.5906C0 26.1536 0.835385 27.6247 2.17912 28.432L22.3287 40.5299L18.1 49.0586L5.07059 50.9423C3.98913 51.0986 3.09222 51.8527 2.75386 52.8855C2.41549 53.9184 2.69719 55.0544 3.47915 55.8133L12.908 64.9609L10.6819 77.8773C10.4974 78.9488 10.9393 80.0316 11.8233 80.6697C12.3235 81.0307 12.9145 81.2144 13.5102 81.2144C13.9668 81.2144 14.425 81.1064 14.8459 80.8856L26.5008 74.7868L38.1557 80.8856C38.575 81.1048 39.0332 81.2144 39.4914 81.2144C40.0855 81.2144 40.6781 81.0307 41.1783 80.6697C42.0623 80.0316 42.5043 78.9488 42.3197 77.8773L40.0936 64.9609L49.5225 55.8133C50.3044 55.0544 50.5861 53.92 50.2478 52.8855C49.911 51.8511 49.0125 51.0986 47.931 50.9423L34.9016 49.0586L30.6729 40.5299L50.8241 28.432C52.1679 27.6247 53.0032 26.1536 53.0032 24.5906V4.7003C53.0032 2.22691 50.9812 0.214355 48.496 0.214355H48.4944ZM49.3411 25.986L38.3872 32.5634V3.06963H48.496C49.3994 3.06963 50.1344 3.80118 50.1344 4.7003V24.5906C50.1344 25.1578 49.8317 25.6927 49.3428 25.986H49.3411ZM29.3988 37.9582L29.075 37.3056C28.5909 36.3307 27.5936 35.7136 26.5024 35.7136C25.4112 35.7136 24.4123 36.3307 23.9299 37.3056L23.6061 37.9582L17.4864 34.2843V3.06963H35.5184V34.2843L29.3988 37.9582ZM2.8688 4.7003C2.8688 3.80118 3.60381 3.06963 4.50719 3.06963H14.616V32.5618L3.6621 25.9844C3.17317 25.6911 2.87042 25.1562 2.87042 24.589V4.7003H2.8688ZM32.9945 51.6674L47.5166 53.7669L43.2911 57.8662L37.0079 63.9618L39.4881 78.3575L26.4992 71.5609L13.5102 78.3575L15.9905 63.9618L8.95449 57.1362L5.48181 53.7669L20.0039 51.6674L21.6277 48.3932L24.8203 41.9559L25.4582 40.6717L26.1009 39.3745L26.4992 38.5705L26.8975 39.3745L27.5402 40.6717L28.1781 41.9559L30.396 46.4289L32.9945 51.6674Z" fill="#4F6CC4"/>
</g>
<defs>
<clipPath id="clip0_2684_1194">
<rect width="53" height="81" fill="white" transform="translate(0 0.214355)"/>
</clipPath>
</defs>
</svg>
